<?xml version="1.0" encoding="utf-8"?>
<!-- Generator: Adobe Illustrator 27.0.0, SVG Export Plug-In . SVG Version: 6.00 Build 0)  -->
<svg version="1.1" id="Layer_1" xmlns="http://www.w3.org/2000/svg" xmlns:xlink="http://www.w3.org/1999/xlink" x="0px" y="0px"
	 viewBox="0 0 245.1 274.5" style="enable-background:new 0 0 245.1 274.5;" xml:space="preserve">
<style type="text/css">
	.st0{fill:#666666;}
	.st1{fill:#FFEC7B;}
	.st2{fill:#FCE11F;}
</style>
<g>
	<g>
		<rect x="105.4" y="195.9" class="st0" width="5.1" height="5.1"/>
		<rect x="105.4" y="191.2" class="st0" width="5.1" height="5.1"/>
		<rect x="105.4" y="186.1" class="st0" width="5.1" height="5.1"/>
		<rect x="105.4" y="181" class="st0" width="5.1" height="5.1"/>
		<rect x="105.4" y="176.3" class="st0" width="5.1" height="5.1"/>
		<rect x="105.4" y="171.3" class="st0" width="5.1" height="5.1"/>
		<rect x="105.4" y="142" class="st0" width="5.1" height="5.1"/>
		<rect x="105.4" y="137.3" class="st0" width="5.1" height="5.1"/>
		<rect x="110.1" y="200.9" class="st0" width="5.1" height="5.1"/>
		<rect x="110.1" y="191.2" class="st0" width="5.1" height="5.1"/>
		<rect x="110.1" y="181" class="st0" width="5.1" height="5.1"/>
		<rect x="110.1" y="171.3" class="st0" width="5.1" height="5.1"/>
		<rect x="110.1" y="147.1" class="st0" width="5.1" height="5.1"/>
		<rect x="110.1" y="132.2" class="st0" width="5.1" height="5.1"/>
		<rect x="115.2" y="200.9" class="st0" width="5.1" height="5.1"/>
		<rect x="115.2" y="191.2" class="st0" width="5.1" height="5.1"/>
		<rect x="115.2" y="181" class="st0" width="5.1" height="5.1"/>
		<rect x="115.2" y="171.3" class="st0" width="5.1" height="5.1"/>
		<rect x="115.2" y="166.6" class="st0" width="5.1" height="5.1"/>
		<rect x="115.2" y="161.5" class="st0" width="5.1" height="5.1"/>
		<rect x="115.2" y="156.8" class="st0" width="5.1" height="5.1"/>
		<rect x="115.2" y="151.7" class="st0" width="5.1" height="5.1"/>
		<rect x="115.2" y="147.1" class="st0" width="5.1" height="5.1"/>
		<rect x="115.2" y="142" class="st0" width="5.1" height="5.1"/>
		<rect x="115.2" y="137.3" class="st0" width="5.1" height="5.1"/>
		<rect x="119.9" y="200.9" class="st0" width="5.1" height="5.1"/>
		<rect x="119.9" y="191.2" class="st0" width="5.1" height="5.1"/>
		<rect x="119.9" y="181" class="st0" width="5.1" height="5.1"/>
		<rect x="119.9" y="171.3" class="st0" width="5.1" height="5.1"/>
		<rect x="119.9" y="142" class="st0" width="5.1" height="5.1"/>
	</g>
	<g>
		<rect x="134.7" y="195.9" class="st0" width="5.1" height="5.1"/>
		<rect x="134.7" y="191.2" class="st0" width="5.1" height="5.1"/>
		<rect x="134.7" y="186.1" class="st0" width="5.1" height="5.1"/>
		<rect x="134.7" y="181" class="st0" width="5.1" height="5.1"/>
		<rect x="134.7" y="176.3" class="st0" width="5.1" height="5.1"/>
		<rect x="134.7" y="171.3" class="st0" width="5.1" height="5.1"/>
		<rect x="134.7" y="142" class="st0" width="5.1" height="5.1"/>
		<rect x="134.7" y="137.3" class="st0" width="5.1" height="5.1"/>
		<rect x="129.6" y="200.9" class="st0" width="5.1" height="5.1"/>
		<rect x="129.6" y="191.2" class="st0" width="5.1" height="5.1"/>
		<rect x="129.6" y="181" class="st0" width="5.1" height="5.1"/>
		<rect x="129.6" y="171.3" class="st0" width="5.1" height="5.1"/>
		<rect x="129.6" y="147.1" class="st0" width="5.1" height="5.1"/>
		<rect x="129.6" y="132.2" class="st0" width="5.1" height="5.1"/>
		<rect x="124.9" y="200.9" class="st0" width="5.1" height="5.1"/>
		<rect x="124.9" y="191.2" class="st0" width="5.1" height="5.1"/>
		<rect x="124.9" y="181" class="st0" width="5.1" height="5.1"/>
		<rect x="124.9" y="171.3" class="st0" width="5.1" height="5.1"/>
		<rect x="124.9" y="166.6" class="st0" width="5.1" height="5.1"/>
		<rect x="124.9" y="161.5" class="st0" width="5.1" height="5.1"/>
		<rect x="124.9" y="156.8" class="st0" width="5.1" height="5.1"/>
		<rect x="124.9" y="151.7" class="st0" width="5.1" height="5.1"/>
		<rect x="124.9" y="147.1" class="st0" width="5.1" height="5.1"/>
		<rect x="124.9" y="142" class="st0" width="5.1" height="5.1"/>
		<rect x="124.9" y="137.3" class="st0" width="5.1" height="5.1"/>
		<rect x="119.9" y="200.9" class="st0" width="5.1" height="5.1"/>
		<rect x="119.9" y="191.2" class="st0" width="5.1" height="5.1"/>
		<rect x="119.9" y="181" class="st0" width="5.1" height="5.1"/>
		<rect x="119.9" y="171.3" class="st0" width="5.1" height="5.1"/>
		<rect x="119.9" y="142" class="st0" width="5.1" height="5.1"/>
	</g>
</g>
<g>
	<g>
		<rect x="95.3" y="117.4" class="st1" width="5.1" height="5.1"/>
		<rect x="95.3" y="112.7" class="st1" width="5.1" height="5.1"/>
		<rect x="100.4" y="112.7" class="st1" width="5.1" height="5.1"/>
		<rect x="100.4" y="107.6" class="st1" width="5.1" height="5.1"/>
		<rect x="100.4" y="103" class="st1" width="5.1" height="5.1"/>
		<rect x="105.4" y="103" class="st1" width="5.1" height="5.1"/>
		<rect x="105.4" y="97.9" class="st1" width="5.1" height="5.1"/>
	</g>
	<g>
		<g>
			<rect x="61.3" y="127.2" class="st2" width="5.1" height="5.1"/>
			<rect x="66" y="156.8" class="st2" width="5.1" height="5.1"/>
			<rect x="66" y="127.2" class="st2" width="5.1" height="5.1"/>
			<rect x="66" y="97.9" class="st2" width="5.1" height="5.1"/>
			<rect x="71.1" y="156.8" class="st2" width="5.1" height="5.1"/>
			<rect x="71.1" y="151.7" class="st2" width="5.1" height="5.1"/>
			<rect x="71.1" y="127.2" class="st2" width="5.1" height="5.1"/>
			<rect x="71.1" y="103" class="st2" width="5.1" height="5.1"/>
			<rect x="71.1" y="97.9" class="st2" width="5.1" height="5.1"/>
			<rect x="75.8" y="151.7" class="st2" width="5.1" height="5.1"/>
			<rect x="75.8" y="103" class="st2" width="5.1" height="5.1"/>
			<rect x="80.8" y="132.2" class="st2" width="5.1" height="5.1"/>
			<rect x="80.8" y="127.2" class="st2" width="5.1" height="5.1"/>
			<rect x="80.8" y="122.5" class="st2" width="5.1" height="5.1"/>
			<rect x="85.5" y="137.3" class="st2" width="5.1" height="5.1"/>
			<rect x="85.5" y="142" class="st2" width="5.1" height="5.1"/>
			<rect x="85.5" y="132.2" class="st2" width="5.1" height="5.1"/>
			<rect x="85.5" y="127.2" class="st2" width="5.1" height="5.1"/>
			<rect x="85.5" y="122.5" class="st2" width="5.1" height="5.1"/>
			<rect x="85.5" y="117.4" class="st2" width="5.1" height="5.1"/>
			<rect x="85.5" y="112.7" class="st2" width="5.1" height="5.1"/>
			<rect x="90.6" y="147.1" class="st2" width="5.1" height="5.1"/>
			<rect x="90.6" y="142" class="st2" width="5.1" height="5.1"/>
			<rect x="90.6" y="137.3" class="st2" width="5.1" height="5.1"/>
			<rect x="90.6" y="132.2" class="st2" width="5.1" height="5.1"/>
			<rect x="90.6" y="127.2" class="st2" width="5.1" height="5.1"/>
			<rect x="90.6" y="122.5" class="st2" width="5.1" height="5.1"/>
			<rect x="90.6" y="117.4" class="st2" width="5.1" height="5.1"/>
			<rect x="90.6" y="112.7" class="st2" width="5.1" height="5.1"/>
			<rect x="90.6" y="107.6" class="st2" width="5.1" height="5.1"/>
			<rect x="90.6" y="103" class="st2" width="5.1" height="5.1"/>
			<rect x="90.6" y="78.4" class="st2" width="5.1" height="5.1"/>
			<rect x="90.6" y="73.3" class="st2" width="5.1" height="5.1"/>
			<rect x="95.3" y="151.7" class="st2" width="5.1" height="5.1"/>
			<rect x="95.3" y="147.1" class="st2" width="5.1" height="5.1"/>
			<rect x="95.3" y="142" class="st2" width="5.1" height="5.1"/>
			<rect x="95.3" y="137.3" class="st2" width="5.1" height="5.1"/>
			<rect x="95.3" y="132.2" class="st2" width="5.1" height="5.1"/>
			<rect x="95.3" y="127.2" class="st2" width="5.1" height="5.1"/>
			<rect x="95.3" y="122.5" class="st2" width="5.1" height="5.1"/>
			<rect x="95.3" y="107.6" class="st2" width="5.1" height="5.1"/>
			<rect x="95.3" y="103" class="st2" width="5.1" height="5.1"/>
			<rect x="95.3" y="97.9" class="st2" width="5.1" height="5.1"/>
			<rect x="95.3" y="83.4" class="st2" width="5.1" height="5.1"/>
			<rect x="95.3" y="78.4" class="st2" width="5.1" height="5.1"/>
			<rect x="100.4" y="161.5" class="st2" width="5.1" height="5.1"/>
			<rect x="100.4" y="156.8" class="st2" width="5.1" height="5.1"/>
			<rect x="100.4" y="151.7" class="st2" width="5.1" height="5.1"/>
			<rect x="100.4" y="147.1" class="st2" width="5.1" height="5.1"/>
			<rect x="100.4" y="142" class="st2" width="5.1" height="5.1"/>
			<rect x="100.4" y="137.3" class="st2" width="5.1" height="5.1"/>
			<rect x="100.4" y="132.2" class="st2" width="5.1" height="5.1"/>
			<rect x="100.4" y="127.2" class="st2" width="5.1" height="5.1"/>
			<rect x="100.4" y="122.5" class="st2" width="5.1" height="5.1"/>
			<rect x="100.4" y="117.4" class="st2" width="5.1" height="5.1"/>
			<rect x="100.4" y="97.9" class="st2" width="5.1" height="5.1"/>
			<rect x="100.4" y="93.2" class="st2" width="5.1" height="5.1"/>
			<rect x="105.4" y="166.6" class="st2" width="5.1" height="5.1"/>
			<rect x="105.4" y="161.5" class="st2" width="5.1" height="5.1"/>
			<rect x="105.4" y="156.8" class="st2" width="5.1" height="5.1"/>
			<rect x="105.4" y="151.7" class="st2" width="5.1" height="5.1"/>
			<rect x="105.4" y="147.1" class="st2" width="5.1" height="5.1"/>
			<rect x="105.4" y="132.2" class="st2" width="5.1" height="5.1"/>
			<rect x="105.4" y="127.2" class="st2" width="5.1" height="5.1"/>
			<rect x="105.4" y="122.5" class="st2" width="5.1" height="5.1"/>
			<rect x="105.4" y="117.4" class="st2" width="5.1" height="5.1"/>
			<rect x="105.4" y="112.7" class="st2" width="5.1" height="5.1"/>
			<rect x="105.4" y="107.6" class="st2" width="5.1" height="5.1"/>
			<rect x="105.4" y="93.2" class="st2" width="5.1" height="5.1"/>
			<rect x="110.1" y="166.6" class="st2" width="5.1" height="5.1"/>
			<rect x="110.1" y="161.5" class="st2" width="5.1" height="5.1"/>
			<rect x="110.1" y="156.8" class="st2" width="5.1" height="5.1"/>
			<rect x="110.1" y="151.7" class="st2" width="5.1" height="5.1"/>
			<rect x="110.1" y="142" class="st2" width="5.1" height="5.1"/>
			<rect x="110.1" y="137.3" class="st2" width="5.1" height="5.1"/>
			<rect x="110.1" y="127.2" class="st2" width="5.1" height="5.1"/>
			<rect x="110.1" y="122.5" class="st2" width="5.1" height="5.1"/>
			<rect x="110.1" y="117.4" class="st2" width="5.1" height="5.1"/>
			<rect x="110.1" y="112.7" class="st2" width="5.1" height="5.1"/>
			<rect x="110.1" y="107.6" class="st2" width="5.1" height="5.1"/>
			<rect x="110.1" y="103" class="st2" width="5.1" height="5.1"/>
			<rect x="110.1" y="97.9" class="st2" width="5.1" height="5.1"/>
			<rect x="110.1" y="93.2" class="st2" width="5.1" height="5.1"/>
			<rect x="110.1" y="88.1" class="st2" width="5.1" height="5.1"/>
			<rect x="115.2" y="132.2" class="st2" width="5.1" height="5.1"/>
			<rect x="115.2" y="127.2" class="st2" width="5.1" height="5.1"/>
			<rect x="115.2" y="122.5" class="st2" width="5.1" height="5.1"/>
			<rect x="115.2" y="117.4" class="st2" width="5.1" height="5.1"/>
			<rect x="115.2" y="112.7" class="st2" width="5.1" height="5.1"/>
			<rect x="115.2" y="107.6" class="st2" width="5.1" height="5.1"/>
			<rect x="115.2" y="103" class="st2" width="5.1" height="5.1"/>
			<rect x="115.2" y="97.9" class="st2" width="5.1" height="5.1"/>
			<rect x="115.2" y="93.2" class="st2" width="5.1" height="5.1"/>
			<rect x="115.2" y="88.1" class="st2" width="5.1" height="5.1"/>
			<rect x="119.9" y="166.6" class="st2" width="5.1" height="5.1"/>
			<rect x="119.9" y="161.5" class="st2" width="5.1" height="5.1"/>
			<rect x="119.9" y="156.8" class="st2" width="5.1" height="5.1"/>
			<rect x="119.9" y="151.7" class="st2" width="5.1" height="5.1"/>
			<rect x="119.9" y="147.1" class="st2" width="5.1" height="5.1"/>
			<rect x="119.9" y="137.3" class="st2" width="5.1" height="5.1"/>
			<rect x="119.9" y="132.2" class="st2" width="5.1" height="5.1"/>
			<rect x="119.9" y="127.2" class="st2" width="5.1" height="5.1"/>
			<rect x="119.9" y="122.5" class="st2" width="5.1" height="5.1"/>
			<rect x="119.9" y="117.4" class="st2" width="5.1" height="5.1"/>
			<rect x="119.9" y="112.7" class="st2" width="5.1" height="5.1"/>
			<rect x="119.9" y="107.6" class="st2" width="5.1" height="5.1"/>
			<rect x="119.9" y="103" class="st2" width="5.1" height="5.1"/>
			<rect x="119.9" y="97.9" class="st2" width="5.1" height="5.1"/>
			<rect x="119.9" y="93.2" class="st2" width="5.1" height="5.1"/>
			<rect x="119.9" y="88.1" class="st2" width="5.1" height="5.1"/>
			<rect x="119.9" y="78.4" class="st2" width="5.1" height="5.1"/>
			<rect x="119.9" y="73.3" class="st2" width="5.1" height="5.1"/>
			<rect x="119.9" y="68.6" class="st2" width="5.1" height="5.1"/>
		</g>
		<g>
			<rect x="178.8" y="127.2" class="st2" width="5.1" height="5.1"/>
			<rect x="173.7" y="156.8" class="st2" width="5.1" height="5.1"/>
			<rect x="173.7" y="127.2" class="st2" width="5.1" height="5.1"/>
			<rect x="173.7" y="97.9" class="st2" width="5.1" height="5.1"/>
			<rect x="169.1" y="156.8" class="st2" width="5.1" height="5.1"/>
			<rect x="169.1" y="151.7" class="st2" width="5.1" height="5.1"/>
			<rect x="169.1" y="127.2" class="st2" width="5.1" height="5.1"/>
			<rect x="169.1" y="103" class="st2" width="5.1" height="5.1"/>
			<rect x="169.1" y="97.9" class="st2" width="5.1" height="5.1"/>
			<rect x="164" y="151.7" class="st2" width="5.1" height="5.1"/>
			<rect x="164" y="103" class="st2" width="5.1" height="5.1"/>
			<rect x="159.3" y="132.2" class="st2" width="5.1" height="5.1"/>
			<rect x="159.3" y="127.2" class="st2" width="5.1" height="5.1"/>
			<rect x="159.3" y="122.5" class="st2" width="5.1" height="5.1"/>
			<rect x="154.2" y="137.3" class="st2" width="5.1" height="5.1"/>
			<rect x="154.2" y="142" class="st2" width="5.1" height="5.1"/>
			<rect x="154.2" y="132.2" class="st2" width="5.1" height="5.1"/>
			<rect x="154.2" y="127.2" class="st2" width="5.1" height="5.1"/>
			<rect x="154.2" y="122.5" class="st2" width="5.1" height="5.1"/>
			<rect x="154.2" y="117.4" class="st2" width="5.1" height="5.1"/>
			<rect x="154.2" y="112.7" class="st2" width="5.1" height="5.1"/>
			<rect x="149.5" y="147.1" class="st2" width="5.1" height="5.1"/>
			<rect x="149.5" y="142" class="st2" width="5.1" height="5.1"/>
			<rect x="149.5" y="137.3" class="st2" width="5.1" height="5.1"/>
			<rect x="149.5" y="132.2" class="st2" width="5.1" height="5.1"/>
			<rect x="149.5" y="127.2" class="st2" width="5.1" height="5.1"/>
			<rect x="149.5" y="122.5" class="st2" width="5.1" height="5.1"/>
			<rect x="149.5" y="117.4" class="st2" width="5.1" height="5.1"/>
			<rect x="149.5" y="112.7" class="st2" width="5.1" height="5.1"/>
			<rect x="149.5" y="107.6" class="st2" width="5.1" height="5.1"/>
			<rect x="149.5" y="103" class="st2" width="5.1" height="5.1"/>
			<rect x="149.5" y="78.4" class="st2" width="5.1" height="5.1"/>
			<rect x="149.5" y="73.3" class="st2" width="5.1" height="5.1"/>
			<rect x="144.5" y="151.7" class="st2" width="5.1" height="5.1"/>
			<rect x="144.5" y="147.1" class="st2" width="5.1" height="5.1"/>
			<rect x="144.5" y="142" class="st2" width="5.1" height="5.1"/>
			<rect x="144.5" y="137.3" class="st2" width="5.1" height="5.1"/>
			<rect x="144.5" y="132.2" class="st2" width="5.1" height="5.1"/>
			<rect x="144.5" y="127.2" class="st2" width="5.1" height="5.1"/>
			<rect x="144.5" y="122.5" class="st2" width="5.1" height="5.1"/>
			<rect x="144.5" y="107.6" class="st2" width="5.1" height="5.1"/>
			<rect x="144.5" y="103" class="st2" width="5.1" height="5.1"/>
			<rect x="144.5" y="97.9" class="st2" width="5.1" height="5.1"/>
			<rect x="144.5" y="83.4" class="st2" width="5.1" height="5.1"/>
			<rect x="144.5" y="78.4" class="st2" width="5.1" height="5.1"/>
			<rect x="139.4" y="161.5" class="st2" width="5.1" height="5.1"/>
			<rect x="139.4" y="156.8" class="st2" width="5.1" height="5.1"/>
			<rect x="139.4" y="151.7" class="st2" width="5.1" height="5.1"/>
			<rect x="139.4" y="147.1" class="st2" width="5.1" height="5.1"/>
			<rect x="139.4" y="142" class="st2" width="5.1" height="5.1"/>
			<rect x="139.4" y="137.3" class="st2" width="5.1" height="5.1"/>
			<rect x="139.4" y="132.2" class="st2" width="5.1" height="5.1"/>
			<rect x="139.4" y="127.2" class="st2" width="5.1" height="5.1"/>
			<rect x="139.4" y="122.5" class="st2" width="5.1" height="5.1"/>
			<rect x="139.4" y="117.4" class="st2" width="5.1" height="5.1"/>
			<rect x="139.4" y="97.9" class="st2" width="5.1" height="5.1"/>
			<rect x="139.4" y="103" class="st2" width="5.1" height="5.1"/>
			<rect x="134.7" y="103" class="st2" width="5.1" height="5.1"/>
			<rect x="139.4" y="107.6" class="st2" width="5.1" height="5.1"/>
			<rect x="139.4" y="112.7" class="st2" width="5.1" height="5.1"/>
			<rect x="144.5" y="112.7" class="st2" width="5.1" height="5.1"/>
			<rect x="144.5" y="117.4" class="st2" width="5.1" height="5.1"/>
			<rect x="139.4" y="93.2" class="st2" width="5.1" height="5.1"/>
			<rect x="134.7" y="166.6" class="st2" width="5.1" height="5.1"/>
			<rect x="134.7" y="161.5" class="st2" width="5.1" height="5.1"/>
			<rect x="134.7" y="156.8" class="st2" width="5.1" height="5.1"/>
			<rect x="134.7" y="151.7" class="st2" width="5.1" height="5.1"/>
			<rect x="134.7" y="147.1" class="st2" width="5.1" height="5.1"/>
			<rect x="134.7" y="132.2" class="st2" width="5.1" height="5.1"/>
			<rect x="134.7" y="127.2" class="st2" width="5.1" height="5.1"/>
			<rect x="134.7" y="122.5" class="st2" width="5.1" height="5.1"/>
			<rect x="134.7" y="117.4" class="st2" width="5.1" height="5.1"/>
			<rect x="134.7" y="112.7" class="st2" width="5.1" height="5.1"/>
			<rect x="134.7" y="107.6" class="st2" width="5.1" height="5.1"/>
			<rect x="134.7" y="93.2" class="st2" width="5.1" height="5.1"/>
			<rect x="134.7" y="97.9" class="st2" width="5.1" height="5.1"/>
			<rect x="129.6" y="166.6" class="st2" width="5.1" height="5.1"/>
			<rect x="129.6" y="161.5" class="st2" width="5.1" height="5.1"/>
			<rect x="129.6" y="156.8" class="st2" width="5.1" height="5.1"/>
			<rect x="129.6" y="151.7" class="st2" width="5.1" height="5.1"/>
			<rect x="129.6" y="142" class="st2" width="5.1" height="5.1"/>
			<rect x="129.6" y="137.3" class="st2" width="5.1" height="5.1"/>
			<rect x="129.6" y="127.2" class="st2" width="5.1" height="5.1"/>
			<rect x="129.6" y="122.5" class="st2" width="5.1" height="5.1"/>
			<rect x="129.6" y="117.4" class="st2" width="5.1" height="5.1"/>
			<rect x="129.6" y="112.7" class="st2" width="5.1" height="5.1"/>
			<rect x="129.6" y="107.6" class="st2" width="5.1" height="5.1"/>
			<rect x="129.6" y="103" class="st2" width="5.1" height="5.1"/>
			<rect x="129.6" y="97.9" class="st2" width="5.1" height="5.1"/>
			<rect x="129.6" y="93.2" class="st2" width="5.1" height="5.1"/>
			<rect x="129.6" y="88.1" class="st2" width="5.1" height="5.1"/>
			<rect x="124.9" y="132.2" class="st2" width="5.1" height="5.1"/>
			<rect x="124.9" y="127.2" class="st2" width="5.1" height="5.1"/>
			<rect x="124.9" y="122.5" class="st2" width="5.1" height="5.1"/>
			<rect x="124.9" y="117.4" class="st2" width="5.1" height="5.1"/>
			<rect x="124.9" y="112.7" class="st2" width="5.1" height="5.1"/>
			<rect x="124.9" y="107.6" class="st2" width="5.1" height="5.1"/>
			<rect x="124.9" y="103" class="st2" width="5.1" height="5.1"/>
			<rect x="124.9" y="97.9" class="st2" width="5.1" height="5.1"/>
			<rect x="124.9" y="93.2" class="st2" width="5.1" height="5.1"/>
			<rect x="124.9" y="88.1" class="st2" width="5.1" height="5.1"/>
			<rect x="119.9" y="166.6" class="st2" width="5.1" height="5.1"/>
			<rect x="119.9" y="161.5" class="st2" width="5.1" height="5.1"/>
			<rect x="119.9" y="156.8" class="st2" width="5.1" height="5.1"/>
			<rect x="119.9" y="151.7" class="st2" width="5.1" height="5.1"/>
			<rect x="119.9" y="147.1" class="st2" width="5.1" height="5.1"/>
			<rect x="119.9" y="137.3" class="st2" width="5.1" height="5.1"/>
			<rect x="119.9" y="132.2" class="st2" width="5.1" height="5.1"/>
			<rect x="119.9" y="127.2" class="st2" width="5.1" height="5.1"/>
			<rect x="119.9" y="122.5" class="st2" width="5.1" height="5.1"/>
			<rect x="119.9" y="117.4" class="st2" width="5.1" height="5.1"/>
			<rect x="119.9" y="112.7" class="st2" width="5.1" height="5.1"/>
			<rect x="119.9" y="107.6" class="st2" width="5.1" height="5.1"/>
			<rect x="119.9" y="103" class="st2" width="5.1" height="5.1"/>
			<rect x="119.9" y="97.9" class="st2" width="5.1" height="5.1"/>
			<rect x="119.9" y="93.2" class="st2" width="5.1" height="5.1"/>
			<rect x="119.9" y="88.1" class="st2" width="5.1" height="5.1"/>
			<rect x="119.9" y="78.4" class="st2" width="5.1" height="5.1"/>
			<rect x="119.9" y="73.3" class="st2" width="5.1" height="5.1"/>
			<rect x="119.9" y="68.6" class="st2" width="5.1" height="5.1"/>
		</g>
	</g>
</g>
</svg>
