<?xml version="1.0" encoding="utf-8"?>
<!-- Generator: Adobe Illustrator 27.0.0, SVG Export Plug-In . SVG Version: 6.00 Build 0)  -->
<svg version="1.1" id="Layer_1" xmlns="http://www.w3.org/2000/svg" xmlns:xlink="http://www.w3.org/1999/xlink" x="0px" y="0px"
	 viewBox="0 0 245.1 274.5" style="enable-background:new 0 0 245.1 274.5;" xml:space="preserve">
<style type="text/css">
	.st0{fill:#666666;}
	.st1{fill:#FFEC7B;}
	.st2{fill:#FCE11F;}
</style>
<g>
	<g>
		<rect x="118.2" y="152.3" class="st0" width="1.3" height="1.3"/>
		<rect x="118.2" y="151.1" class="st0" width="1.3" height="1.3"/>
		<rect x="118.2" y="149.8" class="st0" width="1.3" height="1.3"/>
		<rect x="118.2" y="148.5" class="st0" width="1.3" height="1.3"/>
		<rect x="118.2" y="147.3" class="st0" width="1.3" height="1.3"/>
		<rect x="118.2" y="146" class="st0" width="1.3" height="1.3"/>
		<rect x="118.2" y="138.5" class="st0" width="1.3" height="1.3"/>
		<rect x="118.2" y="137.3" class="st0" width="1.3" height="1.3"/>
		<rect x="119.4" y="153.6" class="st0" width="1.3" height="1.3"/>
		<rect x="119.4" y="151.1" class="st0" width="1.3" height="1.3"/>
		<rect x="119.4" y="148.5" class="st0" width="1.3" height="1.3"/>
		<rect x="119.4" y="146" class="st0" width="1.3" height="1.3"/>
		<rect x="119.4" y="139.8" class="st0" width="1.3" height="1.3"/>
		<rect x="119.4" y="136" class="st0" width="1.3" height="1.3"/>
		<rect x="120.7" y="153.6" class="st0" width="1.3" height="1.3"/>
		<rect x="120.7" y="151.1" class="st0" width="1.3" height="1.3"/>
		<rect x="120.7" y="148.5" class="st0" width="1.3" height="1.3"/>
		<rect x="120.7" y="146" class="st0" width="1.3" height="1.3"/>
		<rect x="120.7" y="144.8" class="st0" width="1.3" height="1.3"/>
		<rect x="120.7" y="143.5" class="st0" width="1.3" height="1.3"/>
		<rect x="120.7" y="142.3" class="st0" width="1.3" height="1.3"/>
		<rect x="120.7" y="141" class="st0" width="1.3" height="1.3"/>
		<rect x="120.7" y="139.8" class="st0" width="1.3" height="1.3"/>
		<rect x="120.7" y="138.5" class="st0" width="1.3" height="1.3"/>
		<rect x="120.7" y="137.3" class="st0" width="1.3" height="1.3"/>
		<rect x="121.9" y="153.6" class="st0" width="1.3" height="1.3"/>
		<rect x="121.9" y="151.1" class="st0" width="1.3" height="1.3"/>
		<rect x="121.9" y="148.5" class="st0" width="1.3" height="1.3"/>
		<rect x="121.9" y="146" class="st0" width="1.3" height="1.3"/>
		<rect x="121.9" y="138.5" class="st0" width="1.3" height="1.3"/>
	</g>
	<g>
		<rect x="125.7" y="152.3" class="st0" width="1.3" height="1.3"/>
		<rect x="125.7" y="151.1" class="st0" width="1.3" height="1.3"/>
		<rect x="125.7" y="149.8" class="st0" width="1.3" height="1.3"/>
		<rect x="125.7" y="148.5" class="st0" width="1.3" height="1.3"/>
		<rect x="125.7" y="147.3" class="st0" width="1.3" height="1.3"/>
		<rect x="125.7" y="146" class="st0" width="1.3" height="1.3"/>
		<rect x="125.7" y="138.5" class="st0" width="1.3" height="1.3"/>
		<rect x="125.7" y="137.3" class="st0" width="1.3" height="1.3"/>
		<rect x="124.4" y="153.6" class="st0" width="1.3" height="1.3"/>
		<rect x="124.4" y="151.1" class="st0" width="1.3" height="1.3"/>
		<rect x="124.4" y="148.5" class="st0" width="1.3" height="1.3"/>
		<rect x="124.4" y="146" class="st0" width="1.3" height="1.3"/>
		<rect x="124.4" y="139.8" class="st0" width="1.3" height="1.3"/>
		<rect x="124.4" y="136" class="st0" width="1.3" height="1.3"/>
		<rect x="123.2" y="153.6" class="st0" width="1.3" height="1.3"/>
		<rect x="123.2" y="151.1" class="st0" width="1.3" height="1.3"/>
		<rect x="123.2" y="148.5" class="st0" width="1.3" height="1.3"/>
		<rect x="123.2" y="146" class="st0" width="1.3" height="1.3"/>
		<rect x="123.2" y="144.8" class="st0" width="1.3" height="1.3"/>
		<rect x="123.2" y="143.5" class="st0" width="1.3" height="1.3"/>
		<rect x="123.2" y="142.3" class="st0" width="1.3" height="1.3"/>
		<rect x="123.2" y="141" class="st0" width="1.3" height="1.3"/>
		<rect x="123.2" y="139.8" class="st0" width="1.3" height="1.3"/>
		<rect x="123.2" y="138.5" class="st0" width="1.3" height="1.3"/>
		<rect x="123.2" y="137.3" class="st0" width="1.3" height="1.3"/>
		<rect x="121.9" y="153.6" class="st0" width="1.3" height="1.3"/>
		<rect x="121.9" y="151.1" class="st0" width="1.3" height="1.3"/>
		<rect x="121.9" y="148.5" class="st0" width="1.3" height="1.3"/>
		<rect x="121.9" y="146" class="st0" width="1.3" height="1.3"/>
		<rect x="121.9" y="138.5" class="st0" width="1.3" height="1.3"/>
	</g>
</g>
<g>
	<g>
		<rect x="115.6" y="132.2" class="st1" width="1.3" height="1.3"/>
		<rect x="115.6" y="131" class="st1" width="1.3" height="1.3"/>
		<rect x="116.9" y="131" class="st1" width="1.3" height="1.3"/>
		<rect x="116.9" y="129.7" class="st1" width="1.3" height="1.3"/>
		<rect x="116.9" y="128.5" class="st1" width="1.3" height="1.3"/>
		<rect x="118.2" y="128.5" class="st1" width="1.3" height="1.3"/>
		<rect x="118.2" y="127.2" class="st1" width="1.3" height="1.3"/>
	</g>
	<g>
		<g>
			<rect x="106.9" y="134.7" class="st2" width="1.3" height="1.3"/>
			<rect x="108.1" y="142.3" class="st2" width="1.3" height="1.3"/>
			<rect x="108.1" y="134.7" class="st2" width="1.3" height="1.3"/>
			<rect x="108.1" y="127.2" class="st2" width="1.3" height="1.3"/>
			<rect x="109.4" y="142.3" class="st2" width="1.3" height="1.3"/>
			<rect x="109.4" y="141" class="st2" width="1.3" height="1.3"/>
			<rect x="109.4" y="134.7" class="st2" width="1.3" height="1.3"/>
			<rect x="109.4" y="128.5" class="st2" width="1.3" height="1.3"/>
			<rect x="109.4" y="127.2" class="st2" width="1.3" height="1.3"/>
			<rect x="110.6" y="141" class="st2" width="1.3" height="1.3"/>
			<rect x="110.6" y="128.5" class="st2" width="1.3" height="1.3"/>
			<rect x="111.9" y="136" class="st2" width="1.3" height="1.3"/>
			<rect x="111.9" y="134.7" class="st2" width="1.3" height="1.3"/>
			<rect x="111.9" y="133.5" class="st2" width="1.3" height="1.3"/>
			<rect x="113.1" y="137.3" class="st2" width="1.3" height="1.3"/>
			<rect x="113.1" y="138.5" class="st2" width="1.3" height="1.3"/>
			<rect x="113.1" y="136" class="st2" width="1.3" height="1.3"/>
			<rect x="113.1" y="134.7" class="st2" width="1.3" height="1.3"/>
			<rect x="113.1" y="133.5" class="st2" width="1.3" height="1.3"/>
			<rect x="113.1" y="132.2" class="st2" width="1.3" height="1.3"/>
			<rect x="113.1" y="131" class="st2" width="1.3" height="1.3"/>
			<rect x="114.4" y="139.8" class="st2" width="1.3" height="1.3"/>
			<rect x="114.4" y="138.5" class="st2" width="1.3" height="1.3"/>
			<rect x="114.4" y="137.3" class="st2" width="1.3" height="1.3"/>
			<rect x="114.4" y="136" class="st2" width="1.3" height="1.3"/>
			<rect x="114.4" y="134.7" class="st2" width="1.3" height="1.3"/>
			<rect x="114.4" y="133.5" class="st2" width="1.3" height="1.3"/>
			<rect x="114.4" y="132.2" class="st2" width="1.3" height="1.3"/>
			<rect x="114.4" y="131" class="st2" width="1.3" height="1.3"/>
			<rect x="114.4" y="129.7" class="st2" width="1.3" height="1.3"/>
			<rect x="114.4" y="128.5" class="st2" width="1.3" height="1.3"/>
			<rect x="114.4" y="122.2" class="st2" width="1.3" height="1.3"/>
			<rect x="114.4" y="120.9" class="st2" width="1.3" height="1.3"/>
			<rect x="115.6" y="141" class="st2" width="1.3" height="1.3"/>
			<rect x="115.6" y="139.8" class="st2" width="1.3" height="1.3"/>
			<rect x="115.6" y="138.5" class="st2" width="1.3" height="1.3"/>
			<rect x="115.6" y="137.3" class="st2" width="1.3" height="1.3"/>
			<rect x="115.6" y="136" class="st2" width="1.3" height="1.3"/>
			<rect x="115.6" y="134.7" class="st2" width="1.3" height="1.3"/>
			<rect x="115.6" y="133.5" class="st2" width="1.3" height="1.3"/>
			<rect x="115.6" y="129.7" class="st2" width="1.3" height="1.3"/>
			<rect x="115.6" y="128.5" class="st2" width="1.3" height="1.3"/>
			<rect x="115.6" y="127.2" class="st2" width="1.3" height="1.3"/>
			<rect x="115.6" y="123.5" class="st2" width="1.3" height="1.3"/>
			<rect x="115.6" y="122.2" class="st2" width="1.3" height="1.3"/>
			<rect x="116.9" y="143.5" class="st2" width="1.3" height="1.3"/>
			<rect x="116.9" y="142.3" class="st2" width="1.3" height="1.3"/>
			<rect x="116.9" y="141" class="st2" width="1.3" height="1.3"/>
			<rect x="116.9" y="139.8" class="st2" width="1.3" height="1.3"/>
			<rect x="116.9" y="138.5" class="st2" width="1.3" height="1.3"/>
			<rect x="116.9" y="137.3" class="st2" width="1.3" height="1.3"/>
			<rect x="116.9" y="136" class="st2" width="1.3" height="1.3"/>
			<rect x="116.9" y="134.7" class="st2" width="1.3" height="1.3"/>
			<rect x="116.9" y="133.5" class="st2" width="1.3" height="1.3"/>
			<rect x="116.9" y="132.2" class="st2" width="1.3" height="1.3"/>
			<rect x="116.9" y="127.2" class="st2" width="1.3" height="1.3"/>
			<rect x="116.9" y="126" class="st2" width="1.3" height="1.3"/>
			<rect x="118.2" y="144.8" class="st2" width="1.3" height="1.3"/>
			<rect x="118.2" y="143.5" class="st2" width="1.3" height="1.3"/>
			<rect x="118.2" y="142.3" class="st2" width="1.3" height="1.3"/>
			<rect x="118.2" y="141" class="st2" width="1.3" height="1.3"/>
			<rect x="118.2" y="139.8" class="st2" width="1.3" height="1.3"/>
			<rect x="118.2" y="136" class="st2" width="1.3" height="1.3"/>
			<rect x="118.2" y="134.7" class="st2" width="1.3" height="1.3"/>
			<rect x="118.2" y="133.5" class="st2" width="1.3" height="1.3"/>
			<rect x="118.2" y="132.2" class="st2" width="1.3" height="1.3"/>
			<rect x="118.2" y="131" class="st2" width="1.3" height="1.3"/>
			<rect x="118.2" y="129.7" class="st2" width="1.3" height="1.3"/>
			<rect x="118.2" y="126" class="st2" width="1.3" height="1.3"/>
			<rect x="119.4" y="144.8" class="st2" width="1.3" height="1.3"/>
			<rect x="119.4" y="143.5" class="st2" width="1.3" height="1.3"/>
			<rect x="119.4" y="142.3" class="st2" width="1.3" height="1.3"/>
			<rect x="119.4" y="141" class="st2" width="1.3" height="1.3"/>
			<rect x="119.4" y="138.5" class="st2" width="1.3" height="1.3"/>
			<rect x="119.4" y="137.3" class="st2" width="1.3" height="1.3"/>
			<rect x="119.4" y="134.7" class="st2" width="1.3" height="1.3"/>
			<rect x="119.4" y="133.5" class="st2" width="1.3" height="1.3"/>
			<rect x="119.4" y="132.2" class="st2" width="1.3" height="1.3"/>
			<rect x="119.4" y="131" class="st2" width="1.3" height="1.3"/>
			<rect x="119.4" y="129.7" class="st2" width="1.3" height="1.3"/>
			<rect x="119.4" y="128.5" class="st2" width="1.3" height="1.3"/>
			<rect x="119.4" y="127.2" class="st2" width="1.3" height="1.3"/>
			<rect x="119.4" y="126" class="st2" width="1.3" height="1.3"/>
			<rect x="119.4" y="124.7" class="st2" width="1.3" height="1.3"/>
			<rect x="120.7" y="136" class="st2" width="1.3" height="1.3"/>
			<rect x="120.7" y="134.7" class="st2" width="1.3" height="1.3"/>
			<rect x="120.7" y="133.5" class="st2" width="1.3" height="1.3"/>
			<rect x="120.7" y="132.2" class="st2" width="1.3" height="1.3"/>
			<rect x="120.7" y="131" class="st2" width="1.3" height="1.3"/>
			<rect x="120.7" y="129.7" class="st2" width="1.3" height="1.3"/>
			<rect x="120.7" y="128.5" class="st2" width="1.3" height="1.3"/>
			<rect x="120.7" y="127.2" class="st2" width="1.3" height="1.3"/>
			<rect x="120.7" y="126" class="st2" width="1.3" height="1.3"/>
			<rect x="120.7" y="124.7" class="st2" width="1.3" height="1.3"/>
			<rect x="121.9" y="144.8" class="st2" width="1.3" height="1.3"/>
			<rect x="121.9" y="143.5" class="st2" width="1.3" height="1.3"/>
			<rect x="121.9" y="142.3" class="st2" width="1.3" height="1.3"/>
			<rect x="121.9" y="141" class="st2" width="1.3" height="1.3"/>
			<rect x="121.9" y="139.8" class="st2" width="1.3" height="1.3"/>
			<rect x="121.9" y="137.3" class="st2" width="1.3" height="1.3"/>
			<rect x="121.9" y="136" class="st2" width="1.3" height="1.3"/>
			<rect x="121.9" y="134.7" class="st2" width="1.3" height="1.3"/>
			<rect x="121.9" y="133.5" class="st2" width="1.3" height="1.3"/>
			<rect x="121.9" y="132.2" class="st2" width="1.3" height="1.3"/>
			<rect x="121.9" y="131" class="st2" width="1.3" height="1.3"/>
			<rect x="121.9" y="129.7" class="st2" width="1.3" height="1.3"/>
			<rect x="121.9" y="128.5" class="st2" width="1.3" height="1.3"/>
			<rect x="121.9" y="127.2" class="st2" width="1.3" height="1.3"/>
			<rect x="121.9" y="126" class="st2" width="1.3" height="1.3"/>
			<rect x="121.9" y="124.7" class="st2" width="1.3" height="1.3"/>
			<rect x="121.9" y="122.2" class="st2" width="1.3" height="1.3"/>
			<rect x="121.9" y="120.9" class="st2" width="1.3" height="1.3"/>
			<rect x="121.9" y="119.7" class="st2" width="1.3" height="1.3"/>
		</g>
		<g>
			<rect x="137" y="134.7" class="st2" width="1.3" height="1.3"/>
			<rect x="135.7" y="142.3" class="st2" width="1.3" height="1.3"/>
			<rect x="135.7" y="134.7" class="st2" width="1.3" height="1.3"/>
			<rect x="135.7" y="127.2" class="st2" width="1.3" height="1.3"/>
			<rect x="134.5" y="142.3" class="st2" width="1.3" height="1.3"/>
			<rect x="134.5" y="141" class="st2" width="1.3" height="1.3"/>
			<rect x="134.5" y="134.7" class="st2" width="1.3" height="1.3"/>
			<rect x="134.5" y="128.5" class="st2" width="1.3" height="1.3"/>
			<rect x="134.5" y="127.2" class="st2" width="1.3" height="1.3"/>
			<rect x="133.2" y="141" class="st2" width="1.3" height="1.3"/>
			<rect x="133.2" y="128.5" class="st2" width="1.3" height="1.3"/>
			<rect x="132" y="136" class="st2" width="1.3" height="1.3"/>
			<rect x="132" y="134.7" class="st2" width="1.3" height="1.3"/>
			<rect x="132" y="133.5" class="st2" width="1.3" height="1.3"/>
			<rect x="130.7" y="137.3" class="st2" width="1.3" height="1.3"/>
			<rect x="130.7" y="138.5" class="st2" width="1.3" height="1.3"/>
			<rect x="130.7" y="136" class="st2" width="1.3" height="1.3"/>
			<rect x="130.7" y="134.7" class="st2" width="1.3" height="1.3"/>
			<rect x="130.7" y="133.5" class="st2" width="1.3" height="1.3"/>
			<rect x="130.7" y="132.2" class="st2" width="1.3" height="1.3"/>
			<rect x="130.7" y="131" class="st2" width="1.3" height="1.3"/>
			<rect x="129.5" y="139.8" class="st2" width="1.3" height="1.3"/>
			<rect x="129.5" y="138.5" class="st2" width="1.3" height="1.3"/>
			<rect x="129.5" y="137.3" class="st2" width="1.3" height="1.3"/>
			<rect x="129.5" y="136" class="st2" width="1.3" height="1.3"/>
			<rect x="129.5" y="134.7" class="st2" width="1.3" height="1.3"/>
			<rect x="129.5" y="133.5" class="st2" width="1.3" height="1.3"/>
			<rect x="129.5" y="132.2" class="st2" width="1.3" height="1.3"/>
			<rect x="129.5" y="131" class="st2" width="1.3" height="1.3"/>
			<rect x="129.5" y="129.7" class="st2" width="1.3" height="1.3"/>
			<rect x="129.5" y="128.5" class="st2" width="1.3" height="1.3"/>
			<rect x="129.5" y="122.2" class="st2" width="1.3" height="1.3"/>
			<rect x="129.5" y="120.9" class="st2" width="1.3" height="1.3"/>
			<rect x="128.2" y="141" class="st2" width="1.3" height="1.3"/>
			<rect x="128.2" y="139.8" class="st2" width="1.3" height="1.3"/>
			<rect x="128.2" y="138.5" class="st2" width="1.3" height="1.3"/>
			<rect x="128.2" y="137.3" class="st2" width="1.3" height="1.3"/>
			<rect x="128.2" y="136" class="st2" width="1.3" height="1.3"/>
			<rect x="128.2" y="134.7" class="st2" width="1.3" height="1.3"/>
			<rect x="128.2" y="133.5" class="st2" width="1.3" height="1.3"/>
			<rect x="128.2" y="129.7" class="st2" width="1.3" height="1.3"/>
			<rect x="128.2" y="128.5" class="st2" width="1.3" height="1.3"/>
			<rect x="128.2" y="127.2" class="st2" width="1.3" height="1.3"/>
			<rect x="128.2" y="123.5" class="st2" width="1.3" height="1.3"/>
			<rect x="128.2" y="122.2" class="st2" width="1.3" height="1.3"/>
			<rect x="126.9" y="143.5" class="st2" width="1.3" height="1.3"/>
			<rect x="126.9" y="142.3" class="st2" width="1.3" height="1.3"/>
			<rect x="126.9" y="141" class="st2" width="1.3" height="1.3"/>
			<rect x="126.9" y="139.8" class="st2" width="1.3" height="1.3"/>
			<rect x="126.9" y="138.5" class="st2" width="1.3" height="1.3"/>
			<rect x="126.9" y="137.3" class="st2" width="1.3" height="1.3"/>
			<rect x="126.9" y="136" class="st2" width="1.3" height="1.3"/>
			<rect x="126.9" y="134.7" class="st2" width="1.3" height="1.3"/>
			<rect x="126.9" y="133.5" class="st2" width="1.3" height="1.3"/>
			<rect x="126.9" y="132.2" class="st2" width="1.3" height="1.3"/>
			<rect x="126.9" y="127.2" class="st2" width="1.3" height="1.3"/>
			<rect x="126.9" y="128.5" class="st2" width="1.3" height="1.3"/>
			<rect x="125.7" y="128.5" class="st2" width="1.3" height="1.3"/>
			<rect x="126.9" y="129.7" class="st2" width="1.3" height="1.3"/>
			<rect x="126.9" y="131" class="st2" width="1.3" height="1.3"/>
			<rect x="128.2" y="131" class="st2" width="1.3" height="1.3"/>
			<rect x="128.2" y="132.2" class="st2" width="1.3" height="1.3"/>
			<rect x="126.9" y="126" class="st2" width="1.3" height="1.3"/>
			<rect x="125.7" y="144.8" class="st2" width="1.3" height="1.3"/>
			<rect x="125.7" y="143.5" class="st2" width="1.3" height="1.3"/>
			<rect x="125.7" y="142.3" class="st2" width="1.3" height="1.3"/>
			<rect x="125.7" y="141" class="st2" width="1.3" height="1.3"/>
			<rect x="125.7" y="139.8" class="st2" width="1.3" height="1.3"/>
			<rect x="125.7" y="136" class="st2" width="1.3" height="1.3"/>
			<rect x="125.7" y="134.7" class="st2" width="1.3" height="1.3"/>
			<rect x="125.7" y="133.5" class="st2" width="1.3" height="1.3"/>
			<rect x="125.7" y="132.2" class="st2" width="1.3" height="1.3"/>
			<rect x="125.7" y="131" class="st2" width="1.3" height="1.3"/>
			<rect x="125.7" y="129.7" class="st2" width="1.3" height="1.3"/>
			<rect x="125.7" y="126" class="st2" width="1.3" height="1.3"/>
			<rect x="125.7" y="127.2" class="st2" width="1.3" height="1.3"/>
			<rect x="124.4" y="144.8" class="st2" width="1.3" height="1.3"/>
			<rect x="124.4" y="143.5" class="st2" width="1.3" height="1.3"/>
			<rect x="124.4" y="142.3" class="st2" width="1.3" height="1.3"/>
			<rect x="124.4" y="141" class="st2" width="1.3" height="1.3"/>
			<rect x="124.4" y="138.5" class="st2" width="1.3" height="1.3"/>
			<rect x="124.4" y="137.3" class="st2" width="1.3" height="1.3"/>
			<rect x="124.4" y="134.7" class="st2" width="1.3" height="1.3"/>
			<rect x="124.4" y="133.5" class="st2" width="1.3" height="1.3"/>
			<rect x="124.4" y="132.2" class="st2" width="1.3" height="1.3"/>
			<rect x="124.4" y="131" class="st2" width="1.3" height="1.3"/>
			<rect x="124.4" y="129.7" class="st2" width="1.3" height="1.3"/>
			<rect x="124.4" y="128.5" class="st2" width="1.3" height="1.3"/>
			<rect x="124.4" y="127.2" class="st2" width="1.3" height="1.3"/>
			<rect x="124.4" y="126" class="st2" width="1.3" height="1.3"/>
			<rect x="124.4" y="124.7" class="st2" width="1.3" height="1.3"/>
			<rect x="123.2" y="136" class="st2" width="1.3" height="1.3"/>
			<rect x="123.2" y="134.7" class="st2" width="1.3" height="1.3"/>
			<rect x="123.2" y="133.5" class="st2" width="1.3" height="1.3"/>
			<rect x="123.2" y="132.2" class="st2" width="1.3" height="1.3"/>
			<rect x="123.2" y="131" class="st2" width="1.3" height="1.3"/>
			<rect x="123.2" y="129.7" class="st2" width="1.3" height="1.3"/>
			<rect x="123.2" y="128.5" class="st2" width="1.3" height="1.3"/>
			<rect x="123.2" y="127.2" class="st2" width="1.3" height="1.3"/>
			<rect x="123.2" y="126" class="st2" width="1.3" height="1.3"/>
			<rect x="123.2" y="124.7" class="st2" width="1.3" height="1.3"/>
			<rect x="121.9" y="144.8" class="st2" width="1.3" height="1.3"/>
			<rect x="121.9" y="143.5" class="st2" width="1.3" height="1.3"/>
			<rect x="121.9" y="142.3" class="st2" width="1.3" height="1.3"/>
			<rect x="121.9" y="141" class="st2" width="1.3" height="1.3"/>
			<rect x="121.9" y="139.8" class="st2" width="1.3" height="1.3"/>
			<rect x="121.9" y="137.3" class="st2" width="1.3" height="1.3"/>
			<rect x="121.9" y="136" class="st2" width="1.3" height="1.3"/>
			<rect x="121.9" y="134.7" class="st2" width="1.3" height="1.3"/>
			<rect x="121.9" y="133.5" class="st2" width="1.3" height="1.3"/>
			<rect x="121.9" y="132.2" class="st2" width="1.3" height="1.3"/>
			<rect x="121.9" y="131" class="st2" width="1.3" height="1.3"/>
			<rect x="121.9" y="129.7" class="st2" width="1.3" height="1.3"/>
			<rect x="121.9" y="128.5" class="st2" width="1.3" height="1.3"/>
			<rect x="121.9" y="127.2" class="st2" width="1.3" height="1.3"/>
			<rect x="121.9" y="126" class="st2" width="1.3" height="1.3"/>
			<rect x="121.9" y="124.7" class="st2" width="1.3" height="1.3"/>
			<rect x="121.9" y="122.2" class="st2" width="1.3" height="1.3"/>
			<rect x="121.9" y="120.9" class="st2" width="1.3" height="1.3"/>
			<rect x="121.9" y="119.7" class="st2" width="1.3" height="1.3"/>
		</g>
	</g>
</g>
</svg>
