<?xml version="1.0" encoding="UTF-8"?><svg id="Layer_1" xmlns="http://www.w3.org/2000/svg" viewBox="0 0 245.1 274.51"><defs><style>.cls-1{fill:#ffec7b;}.cls-2{fill:#fce11f;}.cls-3{fill:#666;}</style></defs><g><g><rect class="cls-3" x="88.23" y="254.9" width="9.81" height="9.8"/><rect class="cls-3" x="88.23" y="245.1" width="9.81" height="9.8"/><rect class="cls-3" x="88.23" y="235.29" width="9.81" height="9.81"/><rect class="cls-3" x="88.23" y="225.49" width="9.81" height="9.8"/><rect class="cls-3" x="88.23" y="215.68" width="9.81" height="9.81"/><rect class="cls-3" x="88.23" y="205.88" width="9.81" height="9.8"/><rect class="cls-3" x="88.23" y="147.06" width="9.81" height="9.8"/><rect class="cls-3" x="88.23" y="137.25" width="9.81" height="9.81"/><rect class="cls-3" x="98.04" y="264.7" width="9.8" height="9.81"/><rect class="cls-3" x="98.04" y="245.1" width="9.8" height="9.8"/><rect class="cls-3" x="98.04" y="225.49" width="9.8" height="9.8"/><rect class="cls-3" x="98.04" y="205.88" width="9.8" height="9.8"/><rect class="cls-3" x="98.04" y="156.86" width="9.8" height="9.8"/><rect class="cls-3" x="98.04" y="127.45" width="9.8" height="9.8"/><rect class="cls-3" x="107.84" y="264.7" width="9.81" height="9.81"/><rect class="cls-3" x="107.84" y="245.1" width="9.81" height="9.8"/><rect class="cls-3" x="107.84" y="225.49" width="9.81" height="9.8"/><rect class="cls-3" x="107.84" y="205.88" width="9.81" height="9.8"/><rect class="cls-3" x="107.84" y="196.08" width="9.81" height="9.8"/><rect class="cls-3" x="107.84" y="186.27" width="9.81" height="9.81"/><rect class="cls-3" x="107.84" y="176.47" width="9.81" height="9.8"/><rect class="cls-3" x="107.84" y="166.66" width="9.81" height="9.81"/><rect class="cls-3" x="107.84" y="156.86" width="9.81" height="9.8"/><rect class="cls-3" x="107.84" y="147.06" width="9.81" height="9.8"/><rect class="cls-3" x="107.84" y="137.25" width="9.81" height="9.81"/><rect class="cls-3" x="117.65" y="264.7" width="9.8" height="9.81"/><rect class="cls-3" x="117.65" y="245.1" width="9.8" height="9.8"/><rect class="cls-3" x="117.65" y="225.49" width="9.8" height="9.8"/><rect class="cls-3" x="117.65" y="205.88" width="9.8" height="9.8"/><rect class="cls-3" x="117.65" y="147.06" width="9.8" height="9.8"/></g><g><rect class="cls-3" x="147.06" y="254.9" width="9.81" height="9.8"/><rect class="cls-3" x="147.06" y="245.1" width="9.81" height="9.8"/><rect class="cls-3" x="147.06" y="235.29" width="9.81" height="9.81"/><rect class="cls-3" x="147.06" y="225.49" width="9.81" height="9.8"/><rect class="cls-3" x="147.06" y="215.68" width="9.81" height="9.81"/><rect class="cls-3" x="147.06" y="205.88" width="9.81" height="9.8"/><rect class="cls-3" x="147.06" y="147.06" width="9.81" height="9.8"/><rect class="cls-3" x="147.06" y="137.25" width="9.81" height="9.81"/><rect class="cls-3" x="137.26" y="264.7" width="9.8" height="9.81"/><rect class="cls-3" x="137.26" y="245.1" width="9.8" height="9.8"/><rect class="cls-3" x="137.26" y="225.49" width="9.8" height="9.8"/><rect class="cls-3" x="137.26" y="205.88" width="9.8" height="9.8"/><rect class="cls-3" x="137.26" y="156.86" width="9.8" height="9.8"/><rect class="cls-3" x="137.26" y="127.45" width="9.8" height="9.8"/><rect class="cls-3" x="127.45" y="264.7" width="9.81" height="9.81"/><rect class="cls-3" x="127.45" y="245.1" width="9.81" height="9.8"/><rect class="cls-3" x="127.45" y="225.49" width="9.81" height="9.8"/><rect class="cls-3" x="127.45" y="205.88" width="9.81" height="9.8"/><rect class="cls-3" x="127.45" y="196.08" width="9.81" height="9.8"/><rect class="cls-3" x="127.45" y="186.27" width="9.81" height="9.81"/><rect class="cls-3" x="127.45" y="176.47" width="9.81" height="9.8"/><rect class="cls-3" x="127.45" y="166.66" width="9.81" height="9.81"/><rect class="cls-3" x="127.45" y="156.86" width="9.81" height="9.8"/><rect class="cls-3" x="127.45" y="147.06" width="9.81" height="9.8"/><rect class="cls-3" x="127.45" y="137.25" width="9.81" height="9.81"/><rect class="cls-3" x="117.65" y="264.7" width="9.8" height="9.81"/><rect class="cls-3" x="117.65" y="245.1" width="9.8" height="9.8"/><rect class="cls-3" x="117.65" y="225.49" width="9.8" height="9.8"/><rect class="cls-3" x="117.65" y="205.88" width="9.8" height="9.8"/><rect class="cls-3" x="117.65" y="147.06" width="9.8" height="9.8"/></g></g><g><g><rect class="cls-1" x="68.63" y="98.04" width="9.8" height="9.8"/><rect class="cls-1" x="68.63" y="88.23" width="9.8" height="9.81"/><rect class="cls-1" x="78.43" y="88.23" width="9.8" height="9.81"/><rect class="cls-1" x="78.43" y="78.43" width="9.8" height="9.8"/><rect class="cls-1" x="78.43" y="68.63" width="9.8" height="9.8"/><rect class="cls-1" x="88.23" y="68.63" width="9.81" height="9.8"/><rect class="cls-1" x="88.23" y="58.82" width="9.81" height="9.81"/></g><g><g><rect class="cls-2" y="117.64" width="9.8" height="9.81"/><rect class="cls-2" x="9.8" y="176.47" width="9.81" height="9.8"/><rect class="cls-2" x="9.8" y="117.64" width="9.81" height="9.81"/><rect class="cls-2" x="9.8" y="58.82" width="9.81" height="9.81"/><rect class="cls-2" x="19.61" y="176.47" width="9.8" height="9.8"/><rect class="cls-2" x="19.61" y="166.66" width="9.8" height="9.81"/><rect class="cls-2" x="19.61" y="117.64" width="9.8" height="9.81"/><rect class="cls-2" x="19.61" y="68.63" width="9.8" height="9.8"/><rect class="cls-2" x="19.61" y="58.82" width="9.8" height="9.81"/><rect class="cls-2" x="29.41" y="166.66" width="9.8" height="9.81"/><rect class="cls-2" x="29.41" y="68.63" width="9.8" height="9.8"/><rect class="cls-2" x="39.21" y="127.45" width="9.81" height="9.8"/><rect class="cls-2" x="39.21" y="117.64" width="9.81" height="9.81"/><rect class="cls-2" x="39.21" y="107.84" width="9.81" height="9.8"/><rect class="cls-2" x="49.02" y="137.25" width="9.8" height="9.81"/><rect class="cls-2" x="49.02" y="147.05" width="9.8" height="9.81"/><rect class="cls-2" x="49.02" y="127.45" width="9.8" height="9.8"/><rect class="cls-2" x="49.02" y="117.64" width="9.8" height="9.81"/><rect class="cls-2" x="49.02" y="107.84" width="9.8" height="9.8"/><rect class="cls-2" x="49.02" y="98.04" width="9.8" height="9.8"/><rect class="cls-2" x="49.02" y="88.23" width="9.8" height="9.81"/><rect class="cls-2" x="58.82" y="156.86" width="9.81" height="9.8"/><rect class="cls-2" x="58.82" y="147.06" width="9.81" height="9.8"/><rect class="cls-2" x="58.82" y="137.25" width="9.81" height="9.81"/><rect class="cls-2" x="58.82" y="127.45" width="9.81" height="9.8"/><rect class="cls-2" x="58.82" y="117.64" width="9.81" height="9.81"/><rect class="cls-2" x="58.82" y="107.84" width="9.81" height="9.8"/><rect class="cls-2" x="58.82" y="98.04" width="9.81" height="9.8"/><rect class="cls-2" x="58.82" y="88.23" width="9.81" height="9.81"/><rect class="cls-2" x="58.82" y="78.43" width="9.81" height="9.8"/><rect class="cls-2" x="58.82" y="68.63" width="9.81" height="9.8"/><rect class="cls-2" x="58.82" y="19.61" width="9.81" height="9.8"/><rect class="cls-2" x="58.82" y="9.8" width="9.81" height="9.81"/><rect class="cls-2" x="68.63" y="166.66" width="9.8" height="9.81"/><rect class="cls-2" x="68.63" y="156.86" width="9.8" height="9.8"/><rect class="cls-2" x="68.63" y="147.06" width="9.8" height="9.8"/><rect class="cls-2" x="68.63" y="137.25" width="9.8" height="9.81"/><rect class="cls-2" x="68.63" y="127.45" width="9.8" height="9.8"/><rect class="cls-2" x="68.63" y="117.64" width="9.8" height="9.81"/><rect class="cls-2" x="68.63" y="107.84" width="9.8" height="9.8"/><rect class="cls-2" x="68.63" y="78.43" width="9.8" height="9.8"/><rect class="cls-2" x="68.63" y="68.63" width="9.8" height="9.8"/><rect class="cls-2" x="68.63" y="58.82" width="9.8" height="9.81"/><rect class="cls-2" x="68.63" y="29.41" width="9.8" height="9.8"/><rect class="cls-2" x="68.63" y="19.61" width="9.8" height="9.8"/><rect class="cls-2" x="78.43" y="186.27" width="9.8" height="9.81"/><rect class="cls-2" x="78.43" y="176.47" width="9.8" height="9.8"/><rect class="cls-2" x="78.43" y="166.66" width="9.8" height="9.81"/><rect class="cls-2" x="78.43" y="156.86" width="9.8" height="9.8"/><rect class="cls-2" x="78.43" y="147.06" width="9.8" height="9.8"/><rect class="cls-2" x="78.43" y="137.25" width="9.8" height="9.81"/><rect class="cls-2" x="78.43" y="127.45" width="9.8" height="9.8"/><rect class="cls-2" x="78.43" y="117.64" width="9.8" height="9.81"/><rect class="cls-2" x="78.43" y="107.84" width="9.8" height="9.8"/><rect class="cls-2" x="78.43" y="98.04" width="9.8" height="9.8"/><rect class="cls-2" x="78.43" y="58.82" width="9.8" height="9.81"/><rect class="cls-2" x="78.43" y="49.02" width="9.8" height="9.8"/><rect class="cls-2" x="88.23" y="196.08" width="9.81" height="9.8"/><rect class="cls-2" x="88.23" y="186.27" width="9.81" height="9.81"/><rect class="cls-2" x="88.23" y="176.47" width="9.81" height="9.8"/><rect class="cls-2" x="88.23" y="166.66" width="9.81" height="9.81"/><rect class="cls-2" x="88.23" y="156.86" width="9.81" height="9.8"/><rect class="cls-2" x="88.23" y="127.45" width="9.81" height="9.8"/><rect class="cls-2" x="88.23" y="117.64" width="9.81" height="9.81"/><rect class="cls-2" x="88.23" y="107.84" width="9.81" height="9.8"/><rect class="cls-2" x="88.23" y="98.04" width="9.81" height="9.8"/><rect class="cls-2" x="88.23" y="88.23" width="9.81" height="9.81"/><rect class="cls-2" x="88.23" y="78.43" width="9.81" height="9.8"/><rect class="cls-2" x="88.23" y="49.02" width="9.81" height="9.8"/><rect class="cls-2" x="98.04" y="196.08" width="9.8" height="9.8"/><rect class="cls-2" x="98.04" y="186.27" width="9.8" height="9.81"/><rect class="cls-2" x="98.04" y="176.47" width="9.8" height="9.8"/><rect class="cls-2" x="98.04" y="166.66" width="9.8" height="9.81"/><rect class="cls-2" x="98.04" y="147.06" width="9.8" height="9.8"/><rect class="cls-2" x="98.04" y="137.25" width="9.8" height="9.81"/><rect class="cls-2" x="98.04" y="117.64" width="9.8" height="9.81"/><rect class="cls-2" x="98.04" y="107.84" width="9.8" height="9.8"/><rect class="cls-2" x="98.04" y="98.04" width="9.8" height="9.8"/><rect class="cls-2" x="98.04" y="88.23" width="9.8" height="9.81"/><rect class="cls-2" x="98.04" y="78.43" width="9.8" height="9.8"/><rect class="cls-2" x="98.04" y="68.63" width="9.8" height="9.8"/><rect class="cls-2" x="98.04" y="58.82" width="9.8" height="9.81"/><rect class="cls-2" x="98.04" y="49.02" width="9.8" height="9.8"/><rect class="cls-2" x="98.04" y="39.21" width="9.8" height="9.81"/><rect class="cls-2" x="107.84" y="127.45" width="9.81" height="9.8"/><rect class="cls-2" x="107.84" y="117.64" width="9.81" height="9.81"/><rect class="cls-2" x="107.84" y="107.84" width="9.81" height="9.8"/><rect class="cls-2" x="107.84" y="98.04" width="9.81" height="9.8"/><rect class="cls-2" x="107.84" y="88.23" width="9.81" height="9.81"/><rect class="cls-2" x="107.84" y="78.43" width="9.81" height="9.8"/><rect class="cls-2" x="107.84" y="68.63" width="9.81" height="9.8"/><rect class="cls-2" x="107.84" y="58.82" width="9.81" height="9.81"/><rect class="cls-2" x="107.84" y="49.02" width="9.81" height="9.8"/><rect class="cls-2" x="107.84" y="39.21" width="9.81" height="9.81"/><rect class="cls-2" x="117.65" y="196.08" width="9.8" height="9.8"/><rect class="cls-2" x="117.65" y="186.27" width="9.8" height="9.81"/><rect class="cls-2" x="117.65" y="176.47" width="9.8" height="9.8"/><rect class="cls-2" x="117.65" y="166.66" width="9.8" height="9.81"/><rect class="cls-2" x="117.65" y="156.86" width="9.8" height="9.8"/><rect class="cls-2" x="117.65" y="137.25" width="9.8" height="9.81"/><rect class="cls-2" x="117.65" y="127.45" width="9.8" height="9.8"/><rect class="cls-2" x="117.65" y="117.64" width="9.8" height="9.81"/><rect class="cls-2" x="117.65" y="107.84" width="9.8" height="9.8"/><rect class="cls-2" x="117.65" y="98.04" width="9.8" height="9.8"/><rect class="cls-2" x="117.65" y="88.23" width="9.8" height="9.81"/><rect class="cls-2" x="117.65" y="78.43" width="9.8" height="9.8"/><rect class="cls-2" x="117.65" y="68.63" width="9.8" height="9.8"/><rect class="cls-2" x="117.65" y="58.82" width="9.8" height="9.81"/><rect class="cls-2" x="117.65" y="49.02" width="9.8" height="9.8"/><rect class="cls-2" x="117.65" y="39.21" width="9.8" height="9.81"/><rect class="cls-2" x="117.65" y="19.61" width="9.8" height="9.8"/><rect class="cls-2" x="117.65" y="9.8" width="9.8" height="9.81"/><rect class="cls-2" x="117.65" width="9.8" height="9.8"/></g><g><rect class="cls-2" x="235.3" y="117.64" width="9.8" height="9.81"/><rect class="cls-2" x="225.49" y="176.47" width="9.81" height="9.8"/><rect class="cls-2" x="225.49" y="117.64" width="9.81" height="9.81"/><rect class="cls-2" x="225.49" y="58.82" width="9.81" height="9.81"/><rect class="cls-2" x="215.69" y="176.47" width="9.8" height="9.8"/><rect class="cls-2" x="215.69" y="166.66" width="9.8" height="9.81"/><rect class="cls-2" x="215.69" y="117.64" width="9.8" height="9.81"/><rect class="cls-2" x="215.69" y="68.63" width="9.8" height="9.8"/><rect class="cls-2" x="215.69" y="58.82" width="9.8" height="9.81"/><rect class="cls-2" x="205.89" y="166.66" width="9.8" height="9.81"/><rect class="cls-2" x="205.89" y="68.63" width="9.8" height="9.8"/><rect class="cls-2" x="196.08" y="127.45" width="9.81" height="9.8"/><rect class="cls-2" x="196.08" y="117.64" width="9.81" height="9.81"/><rect class="cls-2" x="196.08" y="107.84" width="9.81" height="9.8"/><rect class="cls-2" x="186.28" y="137.25" width="9.8" height="9.81"/><rect class="cls-2" x="186.28" y="147.05" width="9.8" height="9.81"/><rect class="cls-2" x="186.28" y="127.45" width="9.8" height="9.8"/><rect class="cls-2" x="186.28" y="117.64" width="9.8" height="9.81"/><rect class="cls-2" x="186.28" y="107.84" width="9.8" height="9.8"/><rect class="cls-2" x="186.28" y="98.04" width="9.8" height="9.8"/><rect class="cls-2" x="186.28" y="88.23" width="9.8" height="9.81"/><rect class="cls-2" x="176.47" y="156.86" width="9.81" height="9.8"/><rect class="cls-2" x="176.47" y="147.06" width="9.81" height="9.8"/><rect class="cls-2" x="176.47" y="137.25" width="9.81" height="9.81"/><rect class="cls-2" x="176.47" y="127.45" width="9.81" height="9.8"/><rect class="cls-2" x="176.47" y="117.64" width="9.81" height="9.81"/><rect class="cls-2" x="176.47" y="107.84" width="9.81" height="9.8"/><rect class="cls-2" x="176.47" y="98.04" width="9.81" height="9.8"/><rect class="cls-2" x="176.47" y="88.23" width="9.81" height="9.81"/><rect class="cls-2" x="176.47" y="78.43" width="9.81" height="9.8"/><rect class="cls-2" x="176.47" y="68.63" width="9.81" height="9.8"/><rect class="cls-2" x="176.47" y="19.61" width="9.81" height="9.8"/><rect class="cls-2" x="176.47" y="9.8" width="9.81" height="9.81"/><rect class="cls-2" x="166.67" y="166.66" width="9.8" height="9.81"/><rect class="cls-2" x="166.67" y="156.86" width="9.8" height="9.8"/><rect class="cls-2" x="166.67" y="147.06" width="9.8" height="9.8"/><rect class="cls-2" x="166.67" y="137.25" width="9.8" height="9.81"/><rect class="cls-2" x="166.67" y="127.45" width="9.8" height="9.8"/><rect class="cls-2" x="166.67" y="117.64" width="9.8" height="9.81"/><rect class="cls-2" x="166.67" y="107.84" width="9.8" height="9.8"/><rect class="cls-2" x="166.67" y="78.43" width="9.8" height="9.8"/><rect class="cls-2" x="166.67" y="68.63" width="9.8" height="9.8"/><rect class="cls-2" x="166.67" y="58.82" width="9.8" height="9.81"/><rect class="cls-2" x="166.67" y="29.41" width="9.8" height="9.8"/><rect class="cls-2" x="166.67" y="19.61" width="9.8" height="9.8"/><rect class="cls-2" x="156.87" y="186.27" width="9.8" height="9.81"/><rect class="cls-2" x="156.87" y="176.47" width="9.8" height="9.8"/><rect class="cls-2" x="156.87" y="166.66" width="9.8" height="9.81"/><rect class="cls-2" x="156.87" y="156.86" width="9.8" height="9.8"/><rect class="cls-2" x="156.87" y="147.06" width="9.8" height="9.8"/><rect class="cls-2" x="156.87" y="137.25" width="9.8" height="9.81"/><rect class="cls-2" x="156.87" y="127.45" width="9.8" height="9.8"/><rect class="cls-2" x="156.87" y="117.64" width="9.8" height="9.81"/><rect class="cls-2" x="156.87" y="107.84" width="9.8" height="9.8"/><rect class="cls-2" x="156.87" y="98.04" width="9.8" height="9.8"/><rect class="cls-2" x="156.87" y="58.82" width="9.8" height="9.81"/><rect class="cls-2" x="156.87" y="68.62" width="9.8" height="9.81"/><rect class="cls-2" x="147.07" y="68.62" width="9.8" height="9.81"/><rect class="cls-2" x="156.87" y="78.43" width="9.8" height="9.81"/><rect class="cls-2" x="156.87" y="88.23" width="9.8" height="9.81"/><rect class="cls-2" x="166.67" y="88.23" width="9.8" height="9.81"/><rect class="cls-2" x="166.67" y="98.03" width="9.8" height="9.81"/><rect class="cls-2" x="156.87" y="49.02" width="9.8" height="9.8"/><rect class="cls-2" x="147.06" y="196.08" width="9.81" height="9.8"/><rect class="cls-2" x="147.06" y="186.27" width="9.81" height="9.81"/><rect class="cls-2" x="147.06" y="176.47" width="9.81" height="9.8"/><rect class="cls-2" x="147.06" y="166.66" width="9.81" height="9.81"/><rect class="cls-2" x="147.06" y="156.86" width="9.81" height="9.8"/><rect class="cls-2" x="147.06" y="127.45" width="9.81" height="9.8"/><rect class="cls-2" x="147.06" y="117.64" width="9.81" height="9.81"/><rect class="cls-2" x="147.06" y="107.84" width="9.81" height="9.8"/><rect class="cls-2" x="147.06" y="98.04" width="9.81" height="9.8"/><rect class="cls-2" x="147.06" y="88.23" width="9.81" height="9.81"/><rect class="cls-2" x="147.06" y="78.43" width="9.81" height="9.8"/><rect class="cls-2" x="147.06" y="49.02" width="9.81" height="9.8"/><rect class="cls-2" x="147.06" y="58.82" width="9.81" height="9.8"/><rect class="cls-2" x="137.26" y="196.08" width="9.8" height="9.8"/><rect class="cls-2" x="137.26" y="186.27" width="9.8" height="9.81"/><rect class="cls-2" x="137.26" y="176.47" width="9.8" height="9.8"/><rect class="cls-2" x="137.26" y="166.66" width="9.8" height="9.81"/><rect class="cls-2" x="137.26" y="147.06" width="9.8" height="9.8"/><rect class="cls-2" x="137.26" y="137.25" width="9.8" height="9.81"/><rect class="cls-2" x="137.26" y="117.64" width="9.8" height="9.81"/><rect class="cls-2" x="137.26" y="107.84" width="9.8" height="9.8"/><rect class="cls-2" x="137.26" y="98.04" width="9.8" height="9.8"/><rect class="cls-2" x="137.26" y="88.23" width="9.8" height="9.81"/><rect class="cls-2" x="137.26" y="78.43" width="9.8" height="9.8"/><rect class="cls-2" x="137.26" y="68.63" width="9.8" height="9.8"/><rect class="cls-2" x="137.26" y="58.82" width="9.8" height="9.81"/><rect class="cls-2" x="137.26" y="49.02" width="9.8" height="9.8"/><rect class="cls-2" x="137.26" y="39.21" width="9.8" height="9.81"/><rect class="cls-2" x="127.45" y="127.45" width="9.81" height="9.8"/><rect class="cls-2" x="127.45" y="117.64" width="9.81" height="9.81"/><rect class="cls-2" x="127.45" y="107.84" width="9.81" height="9.8"/><rect class="cls-2" x="127.45" y="98.04" width="9.81" height="9.8"/><rect class="cls-2" x="127.45" y="88.23" width="9.81" height="9.81"/><rect class="cls-2" x="127.45" y="78.43" width="9.81" height="9.8"/><rect class="cls-2" x="127.45" y="68.63" width="9.81" height="9.8"/><rect class="cls-2" x="127.45" y="58.82" width="9.81" height="9.81"/><rect class="cls-2" x="127.45" y="49.02" width="9.81" height="9.8"/><rect class="cls-2" x="127.45" y="39.21" width="9.81" height="9.81"/><rect class="cls-2" x="117.65" y="196.08" width="9.8" height="9.8"/><rect class="cls-2" x="117.65" y="186.27" width="9.8" height="9.81"/><rect class="cls-2" x="117.65" y="176.47" width="9.8" height="9.8"/><rect class="cls-2" x="117.65" y="166.66" width="9.8" height="9.81"/><rect class="cls-2" x="117.65" y="156.86" width="9.8" height="9.8"/><rect class="cls-2" x="117.65" y="137.25" width="9.8" height="9.81"/><rect class="cls-2" x="117.65" y="127.45" width="9.8" height="9.8"/><rect class="cls-2" x="117.65" y="117.64" width="9.8" height="9.81"/><rect class="cls-2" x="117.65" y="107.84" width="9.8" height="9.8"/><rect class="cls-2" x="117.65" y="98.04" width="9.8" height="9.8"/><rect class="cls-2" x="117.65" y="88.23" width="9.8" height="9.81"/><rect class="cls-2" x="117.65" y="78.43" width="9.8" height="9.8"/><rect class="cls-2" x="117.65" y="68.63" width="9.8" height="9.8"/><rect class="cls-2" x="117.65" y="58.82" width="9.8" height="9.81"/><rect class="cls-2" x="117.65" y="49.02" width="9.8" height="9.8"/><rect class="cls-2" x="117.65" y="39.21" width="9.8" height="9.81"/><rect class="cls-2" x="117.65" y="19.61" width="9.8" height="9.8"/><rect class="cls-2" x="117.65" y="9.8" width="9.8" height="9.81"/><rect class="cls-2" x="117.65" width="9.8" height="9.8"/></g></g></g></svg>