<?xml version="1.0" encoding="utf-8"?>
<!-- Generator: Adobe Illustrator 27.0.0, SVG Export Plug-In . SVG Version: 6.00 Build 0)  -->
<svg version="1.1" id="Layer_1" xmlns="http://www.w3.org/2000/svg" xmlns:xlink="http://www.w3.org/1999/xlink" x="0px" y="0px"
	 viewBox="0 0 245.1 274.5" style="enable-background:new 0 0 245.1 274.5;" xml:space="preserve">
<style type="text/css">
	.st0{fill:#666666;}
	.st1{fill:#FFEC7B;}
	.st2{fill:#FCE11F;}
</style>
<g>
	<g>
		<rect x="107" y="190.6" class="st0" width="4.6" height="4.6"/>
		<rect x="107" y="186.3" class="st0" width="4.6" height="4.6"/>
		<rect x="107" y="181.7" class="st0" width="4.6" height="4.6"/>
		<rect x="107" y="177.1" class="st0" width="4.6" height="4.6"/>
		<rect x="107" y="172.8" class="st0" width="4.6" height="4.6"/>
		<rect x="107" y="168.2" class="st0" width="4.6" height="4.6"/>
		<rect x="107" y="141.6" class="st0" width="4.6" height="4.6"/>
		<rect x="107" y="137.3" class="st0" width="4.6" height="4.6"/>
		<rect x="111.2" y="195.2" class="st0" width="4.6" height="4.6"/>
		<rect x="111.2" y="186.3" class="st0" width="4.6" height="4.6"/>
		<rect x="111.2" y="177.1" class="st0" width="4.6" height="4.6"/>
		<rect x="111.2" y="168.2" class="st0" width="4.6" height="4.6"/>
		<rect x="111.2" y="146.2" class="st0" width="4.6" height="4.6"/>
		<rect x="111.2" y="132.7" class="st0" width="4.6" height="4.6"/>
		<rect x="115.8" y="195.2" class="st0" width="4.6" height="4.6"/>
		<rect x="115.8" y="186.3" class="st0" width="4.6" height="4.6"/>
		<rect x="115.8" y="177.1" class="st0" width="4.6" height="4.6"/>
		<rect x="115.8" y="168.2" class="st0" width="4.6" height="4.6"/>
		<rect x="115.8" y="164" class="st0" width="4.6" height="4.6"/>
		<rect x="115.8" y="159.3" class="st0" width="4.6" height="4.6"/>
		<rect x="115.8" y="155.1" class="st0" width="4.6" height="4.6"/>
		<rect x="115.8" y="150.4" class="st0" width="4.6" height="4.6"/>
		<rect x="115.8" y="146.2" class="st0" width="4.6" height="4.6"/>
		<rect x="115.8" y="141.6" class="st0" width="4.6" height="4.6"/>
		<rect x="115.8" y="137.3" class="st0" width="4.6" height="4.6"/>
		<rect x="120.1" y="195.2" class="st0" width="4.6" height="4.6"/>
		<rect x="120.1" y="186.3" class="st0" width="4.6" height="4.6"/>
		<rect x="120.1" y="177.1" class="st0" width="4.6" height="4.6"/>
		<rect x="120.1" y="168.2" class="st0" width="4.6" height="4.6"/>
		<rect x="120.1" y="141.6" class="st0" width="4.6" height="4.6"/>
	</g>
	<g>
		<rect x="133.6" y="190.6" class="st0" width="4.6" height="4.6"/>
		<rect x="133.6" y="186.3" class="st0" width="4.6" height="4.6"/>
		<rect x="133.6" y="181.7" class="st0" width="4.6" height="4.6"/>
		<rect x="133.6" y="177.1" class="st0" width="4.6" height="4.6"/>
		<rect x="133.6" y="172.8" class="st0" width="4.6" height="4.6"/>
		<rect x="133.6" y="168.2" class="st0" width="4.6" height="4.6"/>
		<rect x="133.6" y="141.6" class="st0" width="4.6" height="4.6"/>
		<rect x="133.6" y="137.3" class="st0" width="4.6" height="4.6"/>
		<rect x="129" y="195.2" class="st0" width="4.6" height="4.6"/>
		<rect x="129" y="186.3" class="st0" width="4.6" height="4.6"/>
		<rect x="129" y="177.1" class="st0" width="4.6" height="4.6"/>
		<rect x="129" y="168.2" class="st0" width="4.6" height="4.6"/>
		<rect x="129" y="146.2" class="st0" width="4.6" height="4.6"/>
		<rect x="129" y="132.7" class="st0" width="4.6" height="4.6"/>
		<rect x="124.7" y="195.2" class="st0" width="4.6" height="4.6"/>
		<rect x="124.7" y="186.3" class="st0" width="4.6" height="4.6"/>
		<rect x="124.7" y="177.1" class="st0" width="4.6" height="4.6"/>
		<rect x="124.7" y="168.2" class="st0" width="4.6" height="4.6"/>
		<rect x="124.7" y="164" class="st0" width="4.6" height="4.6"/>
		<rect x="124.7" y="159.3" class="st0" width="4.6" height="4.6"/>
		<rect x="124.7" y="155.1" class="st0" width="4.6" height="4.6"/>
		<rect x="124.7" y="150.4" class="st0" width="4.6" height="4.6"/>
		<rect x="124.7" y="146.2" class="st0" width="4.6" height="4.6"/>
		<rect x="124.7" y="141.6" class="st0" width="4.6" height="4.6"/>
		<rect x="124.7" y="137.3" class="st0" width="4.6" height="4.6"/>
		<rect x="120.1" y="195.2" class="st0" width="4.6" height="4.6"/>
		<rect x="120.1" y="186.3" class="st0" width="4.6" height="4.6"/>
		<rect x="120.1" y="177.1" class="st0" width="4.6" height="4.6"/>
		<rect x="120.1" y="168.2" class="st0" width="4.6" height="4.6"/>
		<rect x="120.1" y="141.6" class="st0" width="4.6" height="4.6"/>
	</g>
</g>
<g>
	<g>
		<rect x="97.7" y="119.2" class="st1" width="4.6" height="4.6"/>
		<rect x="97.7" y="114.9" class="st1" width="4.6" height="4.6"/>
		<rect x="102.3" y="114.9" class="st1" width="4.6" height="4.6"/>
		<rect x="102.3" y="110.3" class="st1" width="4.6" height="4.6"/>
		<rect x="102.3" y="106" class="st1" width="4.6" height="4.6"/>
		<rect x="107" y="106" class="st1" width="4.6" height="4.6"/>
		<rect x="107" y="101.4" class="st1" width="4.6" height="4.6"/>
	</g>
	<g>
		<g>
			<rect x="66.8" y="128.1" class="st2" width="4.6" height="4.6"/>
			<rect x="71.1" y="155.1" class="st2" width="4.6" height="4.6"/>
			<rect x="71.1" y="128.1" class="st2" width="4.6" height="4.6"/>
			<rect x="71.1" y="101.4" class="st2" width="4.6" height="4.6"/>
			<rect x="75.7" y="155.1" class="st2" width="4.6" height="4.6"/>
			<rect x="75.7" y="150.4" class="st2" width="4.6" height="4.6"/>
			<rect x="75.7" y="128.1" class="st2" width="4.6" height="4.6"/>
			<rect x="75.7" y="106" class="st2" width="4.6" height="4.6"/>
			<rect x="75.7" y="101.4" class="st2" width="4.6" height="4.6"/>
			<rect x="80" y="150.4" class="st2" width="4.6" height="4.6"/>
			<rect x="80" y="106" class="st2" width="4.6" height="4.6"/>
			<rect x="84.6" y="132.7" class="st2" width="4.6" height="4.6"/>
			<rect x="84.6" y="128.1" class="st2" width="4.6" height="4.6"/>
			<rect x="84.6" y="123.8" class="st2" width="4.6" height="4.6"/>
			<rect x="88.8" y="137.3" class="st2" width="4.6" height="4.6"/>
			<rect x="88.8" y="141.6" class="st2" width="4.6" height="4.6"/>
			<rect x="88.8" y="132.7" class="st2" width="4.6" height="4.6"/>
			<rect x="88.8" y="128.1" class="st2" width="4.6" height="4.6"/>
			<rect x="88.8" y="123.8" class="st2" width="4.6" height="4.6"/>
			<rect x="88.8" y="119.2" class="st2" width="4.6" height="4.6"/>
			<rect x="88.8" y="114.9" class="st2" width="4.6" height="4.6"/>
			<rect x="93.5" y="146.2" class="st2" width="4.6" height="4.6"/>
			<rect x="93.5" y="141.6" class="st2" width="4.6" height="4.6"/>
			<rect x="93.5" y="137.3" class="st2" width="4.6" height="4.6"/>
			<rect x="93.5" y="132.7" class="st2" width="4.6" height="4.6"/>
			<rect x="93.5" y="128.1" class="st2" width="4.6" height="4.6"/>
			<rect x="93.5" y="123.8" class="st2" width="4.6" height="4.6"/>
			<rect x="93.5" y="119.2" class="st2" width="4.6" height="4.6"/>
			<rect x="93.5" y="114.9" class="st2" width="4.6" height="4.6"/>
			<rect x="93.5" y="110.3" class="st2" width="4.6" height="4.6"/>
			<rect x="93.5" y="106" class="st2" width="4.6" height="4.6"/>
			<rect x="93.5" y="83.6" class="st2" width="4.6" height="4.6"/>
			<rect x="93.5" y="79" class="st2" width="4.6" height="4.6"/>
			<rect x="97.7" y="150.4" class="st2" width="4.6" height="4.6"/>
			<rect x="97.7" y="146.2" class="st2" width="4.6" height="4.6"/>
			<rect x="97.7" y="141.6" class="st2" width="4.6" height="4.6"/>
			<rect x="97.7" y="137.3" class="st2" width="4.6" height="4.6"/>
			<rect x="97.7" y="132.7" class="st2" width="4.6" height="4.6"/>
			<rect x="97.7" y="128.1" class="st2" width="4.6" height="4.6"/>
			<rect x="97.7" y="123.8" class="st2" width="4.6" height="4.6"/>
			<rect x="97.7" y="110.3" class="st2" width="4.6" height="4.6"/>
			<rect x="97.7" y="106" class="st2" width="4.6" height="4.6"/>
			<rect x="97.7" y="101.4" class="st2" width="4.6" height="4.6"/>
			<rect x="97.7" y="88.3" class="st2" width="4.6" height="4.6"/>
			<rect x="97.7" y="83.6" class="st2" width="4.6" height="4.6"/>
			<rect x="102.3" y="159.3" class="st2" width="4.6" height="4.6"/>
			<rect x="102.3" y="155.1" class="st2" width="4.6" height="4.6"/>
			<rect x="102.3" y="150.4" class="st2" width="4.6" height="4.6"/>
			<rect x="102.3" y="146.2" class="st2" width="4.6" height="4.6"/>
			<rect x="102.3" y="141.6" class="st2" width="4.6" height="4.6"/>
			<rect x="102.3" y="137.3" class="st2" width="4.6" height="4.6"/>
			<rect x="102.3" y="132.7" class="st2" width="4.6" height="4.6"/>
			<rect x="102.3" y="128.1" class="st2" width="4.6" height="4.6"/>
			<rect x="102.3" y="123.8" class="st2" width="4.6" height="4.6"/>
			<rect x="102.3" y="119.2" class="st2" width="4.6" height="4.6"/>
			<rect x="102.3" y="101.4" class="st2" width="4.6" height="4.6"/>
			<rect x="102.3" y="97.1" class="st2" width="4.6" height="4.6"/>
			<rect x="107" y="164" class="st2" width="4.6" height="4.6"/>
			<rect x="107" y="159.3" class="st2" width="4.6" height="4.6"/>
			<rect x="107" y="155.1" class="st2" width="4.6" height="4.6"/>
			<rect x="107" y="150.4" class="st2" width="4.6" height="4.6"/>
			<rect x="107" y="146.2" class="st2" width="4.6" height="4.6"/>
			<rect x="107" y="132.7" class="st2" width="4.6" height="4.6"/>
			<rect x="107" y="128.1" class="st2" width="4.6" height="4.6"/>
			<rect x="107" y="123.8" class="st2" width="4.6" height="4.6"/>
			<rect x="107" y="119.2" class="st2" width="4.6" height="4.6"/>
			<rect x="107" y="114.9" class="st2" width="4.6" height="4.6"/>
			<rect x="107" y="110.3" class="st2" width="4.6" height="4.6"/>
			<rect x="107" y="97.1" class="st2" width="4.6" height="4.6"/>
			<rect x="111.2" y="164" class="st2" width="4.6" height="4.6"/>
			<rect x="111.2" y="159.3" class="st2" width="4.6" height="4.6"/>
			<rect x="111.2" y="155.1" class="st2" width="4.6" height="4.6"/>
			<rect x="111.2" y="150.4" class="st2" width="4.6" height="4.6"/>
			<rect x="111.2" y="141.6" class="st2" width="4.6" height="4.6"/>
			<rect x="111.2" y="137.3" class="st2" width="4.6" height="4.6"/>
			<rect x="111.2" y="128.1" class="st2" width="4.6" height="4.6"/>
			<rect x="111.2" y="123.8" class="st2" width="4.6" height="4.6"/>
			<rect x="111.2" y="119.2" class="st2" width="4.6" height="4.6"/>
			<rect x="111.2" y="114.9" class="st2" width="4.6" height="4.6"/>
			<rect x="111.2" y="110.3" class="st2" width="4.6" height="4.6"/>
			<rect x="111.2" y="106" class="st2" width="4.6" height="4.6"/>
			<rect x="111.2" y="101.4" class="st2" width="4.6" height="4.6"/>
			<rect x="111.2" y="97.1" class="st2" width="4.6" height="4.6"/>
			<rect x="111.2" y="92.5" class="st2" width="4.6" height="4.6"/>
			<rect x="115.8" y="132.7" class="st2" width="4.6" height="4.6"/>
			<rect x="115.8" y="128.1" class="st2" width="4.6" height="4.6"/>
			<rect x="115.8" y="123.8" class="st2" width="4.6" height="4.6"/>
			<rect x="115.8" y="119.2" class="st2" width="4.6" height="4.6"/>
			<rect x="115.8" y="114.9" class="st2" width="4.6" height="4.6"/>
			<rect x="115.8" y="110.3" class="st2" width="4.6" height="4.6"/>
			<rect x="115.8" y="106" class="st2" width="4.6" height="4.6"/>
			<rect x="115.8" y="101.4" class="st2" width="4.6" height="4.6"/>
			<rect x="115.8" y="97.1" class="st2" width="4.6" height="4.6"/>
			<rect x="115.8" y="92.5" class="st2" width="4.6" height="4.6"/>
			<rect x="120.1" y="164" class="st2" width="4.6" height="4.6"/>
			<rect x="120.1" y="159.3" class="st2" width="4.6" height="4.6"/>
			<rect x="120.1" y="155.1" class="st2" width="4.6" height="4.6"/>
			<rect x="120.1" y="150.4" class="st2" width="4.6" height="4.6"/>
			<rect x="120.1" y="146.2" class="st2" width="4.6" height="4.6"/>
			<rect x="120.1" y="137.3" class="st2" width="4.6" height="4.6"/>
			<rect x="120.1" y="132.7" class="st2" width="4.6" height="4.6"/>
			<rect x="120.1" y="128.1" class="st2" width="4.6" height="4.6"/>
			<rect x="120.1" y="123.8" class="st2" width="4.6" height="4.6"/>
			<rect x="120.1" y="119.2" class="st2" width="4.6" height="4.6"/>
			<rect x="120.1" y="114.9" class="st2" width="4.6" height="4.6"/>
			<rect x="120.1" y="110.3" class="st2" width="4.6" height="4.6"/>
			<rect x="120.1" y="106" class="st2" width="4.6" height="4.6"/>
			<rect x="120.1" y="101.4" class="st2" width="4.6" height="4.6"/>
			<rect x="120.1" y="97.1" class="st2" width="4.6" height="4.6"/>
			<rect x="120.1" y="92.5" class="st2" width="4.6" height="4.6"/>
			<rect x="120.1" y="83.6" class="st2" width="4.6" height="4.6"/>
			<rect x="120.1" y="79" class="st2" width="4.6" height="4.6"/>
			<rect x="120.1" y="74.8" class="st2" width="4.6" height="4.6"/>
		</g>
		<g>
			<rect x="173.8" y="128.1" class="st2" width="4.6" height="4.6"/>
			<rect x="169.2" y="155.1" class="st2" width="4.6" height="4.6"/>
			<rect x="169.2" y="128.1" class="st2" width="4.6" height="4.6"/>
			<rect x="169.2" y="101.4" class="st2" width="4.6" height="4.6"/>
			<rect x="164.9" y="155.1" class="st2" width="4.6" height="4.6"/>
			<rect x="164.9" y="150.4" class="st2" width="4.6" height="4.6"/>
			<rect x="164.9" y="128.1" class="st2" width="4.6" height="4.6"/>
			<rect x="164.9" y="106" class="st2" width="4.6" height="4.6"/>
			<rect x="164.9" y="101.4" class="st2" width="4.6" height="4.6"/>
			<rect x="160.3" y="150.4" class="st2" width="4.6" height="4.6"/>
			<rect x="160.3" y="106" class="st2" width="4.6" height="4.6"/>
			<rect x="156" y="132.7" class="st2" width="4.6" height="4.6"/>
			<rect x="156" y="128.1" class="st2" width="4.6" height="4.6"/>
			<rect x="156" y="123.8" class="st2" width="4.6" height="4.6"/>
			<rect x="151.4" y="137.3" class="st2" width="4.6" height="4.6"/>
			<rect x="151.4" y="141.6" class="st2" width="4.6" height="4.6"/>
			<rect x="151.4" y="132.7" class="st2" width="4.6" height="4.6"/>
			<rect x="151.4" y="128.1" class="st2" width="4.6" height="4.6"/>
			<rect x="151.4" y="123.8" class="st2" width="4.6" height="4.6"/>
			<rect x="151.4" y="119.2" class="st2" width="4.6" height="4.6"/>
			<rect x="151.4" y="114.9" class="st2" width="4.6" height="4.6"/>
			<rect x="147.1" y="146.2" class="st2" width="4.6" height="4.6"/>
			<rect x="147.1" y="141.6" class="st2" width="4.6" height="4.6"/>
			<rect x="147.1" y="137.3" class="st2" width="4.6" height="4.6"/>
			<rect x="147.1" y="132.7" class="st2" width="4.6" height="4.6"/>
			<rect x="147.1" y="128.1" class="st2" width="4.6" height="4.6"/>
			<rect x="147.1" y="123.8" class="st2" width="4.6" height="4.6"/>
			<rect x="147.1" y="119.2" class="st2" width="4.6" height="4.6"/>
			<rect x="147.1" y="114.9" class="st2" width="4.6" height="4.6"/>
			<rect x="147.1" y="110.3" class="st2" width="4.6" height="4.6"/>
			<rect x="147.1" y="106" class="st2" width="4.6" height="4.6"/>
			<rect x="147.1" y="83.6" class="st2" width="4.6" height="4.6"/>
			<rect x="147.1" y="79" class="st2" width="4.6" height="4.6"/>
			<rect x="142.5" y="150.4" class="st2" width="4.6" height="4.6"/>
			<rect x="142.5" y="146.2" class="st2" width="4.6" height="4.6"/>
			<rect x="142.5" y="141.6" class="st2" width="4.6" height="4.6"/>
			<rect x="142.5" y="137.3" class="st2" width="4.6" height="4.6"/>
			<rect x="142.5" y="132.7" class="st2" width="4.6" height="4.6"/>
			<rect x="142.5" y="128.1" class="st2" width="4.6" height="4.6"/>
			<rect x="142.5" y="123.8" class="st2" width="4.6" height="4.6"/>
			<rect x="142.5" y="110.3" class="st2" width="4.6" height="4.6"/>
			<rect x="142.5" y="106" class="st2" width="4.6" height="4.6"/>
			<rect x="142.5" y="101.4" class="st2" width="4.6" height="4.6"/>
			<rect x="142.5" y="88.3" class="st2" width="4.6" height="4.6"/>
			<rect x="142.5" y="83.6" class="st2" width="4.6" height="4.6"/>
			<rect x="137.9" y="159.3" class="st2" width="4.6" height="4.6"/>
			<rect x="137.9" y="155.1" class="st2" width="4.6" height="4.6"/>
			<rect x="137.9" y="150.4" class="st2" width="4.6" height="4.6"/>
			<rect x="137.9" y="146.2" class="st2" width="4.6" height="4.6"/>
			<rect x="137.9" y="141.6" class="st2" width="4.6" height="4.6"/>
			<rect x="137.9" y="137.3" class="st2" width="4.6" height="4.6"/>
			<rect x="137.9" y="132.7" class="st2" width="4.6" height="4.6"/>
			<rect x="137.9" y="128.1" class="st2" width="4.6" height="4.6"/>
			<rect x="137.9" y="123.8" class="st2" width="4.6" height="4.6"/>
			<rect x="137.9" y="119.2" class="st2" width="4.6" height="4.6"/>
			<rect x="137.9" y="101.4" class="st2" width="4.6" height="4.6"/>
			<rect x="137.9" y="106" class="st2" width="4.6" height="4.6"/>
			<rect x="133.6" y="106" class="st2" width="4.6" height="4.6"/>
			<rect x="137.9" y="110.3" class="st2" width="4.6" height="4.6"/>
			<rect x="137.9" y="114.9" class="st2" width="4.6" height="4.6"/>
			<rect x="142.5" y="114.9" class="st2" width="4.6" height="4.6"/>
			<rect x="142.5" y="119.2" class="st2" width="4.6" height="4.6"/>
			<rect x="137.9" y="97.1" class="st2" width="4.6" height="4.6"/>
			<rect x="133.6" y="164" class="st2" width="4.6" height="4.6"/>
			<rect x="133.6" y="159.3" class="st2" width="4.6" height="4.6"/>
			<rect x="133.6" y="155.1" class="st2" width="4.6" height="4.6"/>
			<rect x="133.6" y="150.4" class="st2" width="4.6" height="4.6"/>
			<rect x="133.6" y="146.2" class="st2" width="4.6" height="4.6"/>
			<rect x="133.6" y="132.7" class="st2" width="4.6" height="4.6"/>
			<rect x="133.6" y="128.1" class="st2" width="4.6" height="4.6"/>
			<rect x="133.6" y="123.8" class="st2" width="4.6" height="4.6"/>
			<rect x="133.6" y="119.2" class="st2" width="4.6" height="4.6"/>
			<rect x="133.6" y="114.9" class="st2" width="4.6" height="4.6"/>
			<rect x="133.6" y="110.3" class="st2" width="4.6" height="4.6"/>
			<rect x="133.6" y="97.1" class="st2" width="4.6" height="4.6"/>
			<rect x="133.6" y="101.4" class="st2" width="4.6" height="4.6"/>
			<rect x="129" y="164" class="st2" width="4.6" height="4.6"/>
			<rect x="129" y="159.3" class="st2" width="4.6" height="4.6"/>
			<rect x="129" y="155.1" class="st2" width="4.6" height="4.6"/>
			<rect x="129" y="150.4" class="st2" width="4.6" height="4.6"/>
			<rect x="129" y="141.6" class="st2" width="4.6" height="4.6"/>
			<rect x="129" y="137.3" class="st2" width="4.6" height="4.6"/>
			<rect x="129" y="128.1" class="st2" width="4.6" height="4.6"/>
			<rect x="129" y="123.8" class="st2" width="4.6" height="4.6"/>
			<rect x="129" y="119.2" class="st2" width="4.6" height="4.6"/>
			<rect x="129" y="114.9" class="st2" width="4.6" height="4.6"/>
			<rect x="129" y="110.3" class="st2" width="4.6" height="4.6"/>
			<rect x="129" y="106" class="st2" width="4.6" height="4.6"/>
			<rect x="129" y="101.4" class="st2" width="4.6" height="4.6"/>
			<rect x="129" y="97.1" class="st2" width="4.6" height="4.6"/>
			<rect x="129" y="92.5" class="st2" width="4.6" height="4.6"/>
			<rect x="124.7" y="132.7" class="st2" width="4.6" height="4.6"/>
			<rect x="124.7" y="128.1" class="st2" width="4.6" height="4.6"/>
			<rect x="124.7" y="123.8" class="st2" width="4.6" height="4.6"/>
			<rect x="124.7" y="119.2" class="st2" width="4.6" height="4.6"/>
			<rect x="124.7" y="114.9" class="st2" width="4.6" height="4.6"/>
			<rect x="124.7" y="110.3" class="st2" width="4.6" height="4.6"/>
			<rect x="124.7" y="106" class="st2" width="4.6" height="4.6"/>
			<rect x="124.7" y="101.4" class="st2" width="4.6" height="4.6"/>
			<rect x="124.7" y="97.1" class="st2" width="4.6" height="4.6"/>
			<rect x="124.7" y="92.5" class="st2" width="4.6" height="4.6"/>
			<rect x="120.1" y="164" class="st2" width="4.6" height="4.6"/>
			<rect x="120.1" y="159.3" class="st2" width="4.6" height="4.6"/>
			<rect x="120.1" y="155.1" class="st2" width="4.6" height="4.6"/>
			<rect x="120.1" y="150.4" class="st2" width="4.6" height="4.6"/>
			<rect x="120.1" y="146.2" class="st2" width="4.6" height="4.6"/>
			<rect x="120.1" y="137.3" class="st2" width="4.6" height="4.6"/>
			<rect x="120.1" y="132.7" class="st2" width="4.6" height="4.6"/>
			<rect x="120.1" y="128.1" class="st2" width="4.6" height="4.6"/>
			<rect x="120.1" y="123.8" class="st2" width="4.6" height="4.6"/>
			<rect x="120.1" y="119.2" class="st2" width="4.6" height="4.6"/>
			<rect x="120.1" y="114.9" class="st2" width="4.6" height="4.6"/>
			<rect x="120.1" y="110.3" class="st2" width="4.6" height="4.6"/>
			<rect x="120.1" y="106" class="st2" width="4.6" height="4.6"/>
			<rect x="120.1" y="101.4" class="st2" width="4.6" height="4.6"/>
			<rect x="120.1" y="97.1" class="st2" width="4.6" height="4.6"/>
			<rect x="120.1" y="92.5" class="st2" width="4.6" height="4.6"/>
			<rect x="120.1" y="83.6" class="st2" width="4.6" height="4.6"/>
			<rect x="120.1" y="79" class="st2" width="4.6" height="4.6"/>
			<rect x="120.1" y="74.8" class="st2" width="4.6" height="4.6"/>
		</g>
	</g>
</g>
</svg>
